<?xml version="1.0" ?><!DOCTYPE svg  PUBLIC '-//W3C//DTD SVG 1.1//EN'  'http://www.w3.org/Graphics/SVG/1.1/DTD/svg11.dtd'><svg enable-background="new 0 0 128 128" height="128px" id="Layer_1" version="1.1" viewBox="0 0 128 128" width="128px" xml:space="preserve" xmlns="http://www.w3.org/2000/svg" xmlns:xlink="http://www.w3.org/1999/xlink"><g><path d="M64.008,113.826c-27.643,0-50.131-22.486-50.131-50.128c0-27.64,22.488-50.127,50.131-50.127   c27.642,0,50.129,22.487,50.129,50.127C114.137,91.34,91.649,113.826,64.008,113.826z M64.008,17.571   c-25.437,0-46.131,20.692-46.131,46.127c0,25.435,20.694,46.128,46.131,46.128c25.436,0,46.129-20.693,46.129-46.128   C110.137,38.263,89.443,17.571,64.008,17.571z"/></g><g><g><path d="M42.201,77.297c-1.104,0-2-0.895-2-2v-23c0-1.104,0.896-2,2-2s2,0.896,2,2v23C44.201,76.402,43.306,77.297,42.201,77.297z    "/><path d="M55.145,65.488H40.201V49.6h14.943c4.381,0,7.945,3.563,7.945,7.943C63.09,61.924,59.525,65.488,55.145,65.488z     M44.201,61.489h10.943c2.176,0,3.945-1.77,3.945-3.945c0-2.175-1.77-3.943-3.945-3.943H44.201V61.489z"/><path d="M56.145,77.797H40.201V61.909h15.943c4.381,0,7.945,3.564,7.945,7.945S60.525,77.797,56.145,77.797z M44.201,73.797    h11.943c2.176,0,3.945-1.768,3.945-3.943s-1.77-3.945-3.945-3.945H44.201V73.797z"/></g><g><path d="M77.17,77.797c-5.87,0-10.646-4.775-10.646-10.645c0-5.87,4.776-10.646,10.646-10.646c5.869,0,10.645,4.776,10.645,10.646    c0,1.105-0.896,2-2,2s-2-0.895-2-2c0-3.665-2.98-6.646-6.645-6.646c-3.665,0-6.646,2.981-6.646,6.646    c0,3.664,2.981,6.645,6.646,6.645c1.774,0,3.443-0.691,4.7-1.945c0.782-0.779,2.048-0.781,2.828,0.002    c0.78,0.781,0.78,2.047-0.002,2.828C82.685,76.691,80.012,77.797,77.17,77.797z"/><path d="M84.422,69.17H69.359c-1.104,0-2-0.895-2-2c0-1.104,0.896-2,2-2h15.063c1.104,0,2,0.896,2,2    C86.422,68.275,85.526,69.17,84.422,69.17z"/></g><path d="M84.699,53.6H69.451c-1.104,0-2-0.896-2-2s0.896-2,2-2h15.248c1.104,0,2,0.896,2,2S85.804,53.6,84.699,53.6z"/></g></svg>