<?xml version="1.0" encoding="UTF-8"?>
<svg id="Layer_1" data-name="Layer 1" xmlns="http://www.w3.org/2000/svg" xmlns:xlink="http://www.w3.org/1999/xlink" viewBox="0 0 207.52 179.96">
  <defs>
    <style>
      .cls-1 {
        fill: none;
      }

      .cls-2 {
        clip-path: url(#clippath);
      }

      .cls-3 {
        fill: #595857;
      }
    </style>
    <clipPath id="clippath">
      <rect class="cls-1" x="133.95" width="55.4" height="32"/>
    </clipPath>
  </defs>
  <path class="cls-3" d="M36.15,95.9v-.15c0-2.85-2.25-4.2-4.5-4.2-4.5,0-4.35,4.05-4.35,4.35,.15,4.05,.3,8.25,.3,12.6,0,3.45-.15,7.05-.3,10.8v.3c0,2.85,2.25,4.2,4.5,4.2,1.95,0,3.9-1.05,4.05-3.15,.3-2.55-.15-6,.75-6,.15,0,.3,.15,.6,.45,5.7,6.3,15.15,10.05,25.8,10.05,21,0,33.75-14.1,33.75-28.95,0-10.65-6.3-21.9-21-29.85-6.15-3.3-15.45-7.65-21.75-10.8-9-4.35-13.05-11.25-13.05-17.7,0-8.7,7.5-16.65,20.4-16.65,15.75,0,22.2,10.2,22.2,13.8,0,1.35,0,.9-.15,3.3v.3c0,2.7,2.1,3.9,4.35,4.05,2.25-.15,4.5-1.5,4.35-4.35-.15-4.5-.3-7.8-.3-11.1,0-2.7,.15-5.55,.3-9v-.3c0-2.55-2.1-3.9-4.35-3.9-1.8,0-3.6,.9-4.05,3-.15,.9,0,2.7-.75,2.7-.15,0-.3-.15-.6-.3-5.25-4.05-12.75-6-21.15-6-18.75,0-29.25,12-29.25,24.9,0,9.3,5.7,19.05,18,24.9,7.35,3.45,15,7.5,21.6,11.1,10.8,6,15.45,14.25,15.45,22.05,0,10.65-9,19.95-23.4,20.1-19.2,0-27.45-12.75-27.45-17.7v-2.85Z"/>
  <path class="cls-3" d="M120.4,95.2c6.75-.15,15.15-.3,20.55-.3,4.95,0,9.75,0,9.75,7.05,0,7.8-8.4,30.9-36.45,30.9s-43.8-22.2-43.8-46.05,16.05-48,44.4-48c14.7,0,25.35,7.05,29.4,13.05,1.5,2.25,1.5,6.15,1.95,7.8,.45,1.8,1.95,2.7,3.6,2.7,2.1-.15,4.2-1.5,4.2-4.35v-.3c-.15-4.5-.3-8.1-.3-11.85,0-3,.15-6,.3-9.45v-.3c0-2.85-2.1-4.2-4.35-4.2-2.55,0-4.5,1.8-4.5,3.75,0,1.05,.15,1.65,.15,2.85,0,.6-.3,1.05-.9,1.05-.15,0-.3,0-.45-.15-7.8-5.85-18.3-8.7-28.95-8.7-35.25,0-54,28.2-54,56.4,0,30.75,21.75,54.9,52.05,54.9,13.5,0,26.7-5.1,35.55-15.9,.75-.9,1.2-1.35,1.65-1.35s.6,.6,.75,1.95c0,1.2,0,5.1-.15,7.35v.3c0,3,2.25,4.35,4.5,4.35s4.35-1.5,4.35-4.35v-.3c-.15-2.85-.15-7.65-.15-13.2,0-7.5,0-16.05,.15-21.6v-.3c0-8.7-6.15-12.75-13.95-12.75-7.35,0-17.4-.15-25.2-.15-3.45,0-4.95,2.1-4.95,4.35,0,2.4,1.65,4.8,4.65,4.8h.15Z"/>
  <g class="cls-2">
    <path class="cls-3" d="M146.09,.02c3.81-.17,7.74,.9,10.77,3.26,2.18,1.98,3.79,4.54,4.75,7.32,1-2.83,2.67-5.43,4.91-7.43,3.14-2.39,7.2-3.29,11.09-3.06,3.55,.02,7.1,.01,10.65,.03,.63-.02,1.19,.6,1.06,1.23-.06,.5-.52,.87-1.01,.88-.71,.06-1.24,.62-1.6,1.19-1.72,2.63-.55,5.95-1.76,8.73-.95,2.5-3.36,4.16-5.9,4.75,3.23,3.02,3.69,8.42,1.06,11.97-1.54,2.33-4.5,3.24-7.18,3.11-2.27-.19-4.58-1.05-6.11-2.81-1.44-1.69-2.04-3.99-1.88-6.18,.11-.79,.88-1.47,1.69-1.38,.99,.02,1.79,1.13,1.46,2.07-.1,.54-.54,.93-1.01,1.15,.22,2.14,1.85,3.98,3.9,4.58,2.41,.89,5.5,.56,7.21-1.5,1.66-1.94,1.94-4.84,.98-7.16-.51-1.43-1.65-2.63-3.07-3.18-.96-.46-2.04-.44-3.07-.54-.95-.31-.92-1.83,.08-2.05,1.18-.05,2.36,0,3.54-.02,1.86,.07,3.76-.55,5.14-1.82,1.01-1,1.56-2.41,1.65-3.82,.03-2.42,.18-4.97,1.46-7.11-2.47-.01-4.94,0-7.42-.02-1.94-.14-3.9,.11-5.77,.65-1.77,.6-3.59,1.38-4.83,2.84-2.24,2.47-3.68,5.65-4.07,8.96-.19,1.36-.21,2.73-.2,4.1,0,.37-.16,.77-.51,.94-.64,.43-1.62-.12-1.59-.89,.04-2.14-.03-4.31-.6-6.39-.71-2.89-2.29-5.57-4.49-7.58-2.57-1.97-5.87-2.83-9.08-2.74-2.65-.02-5.31,.06-7.96-.04-.03,.02-.07,.05-.1,.07,1.22,1.91,1.32,4.26,1.39,6.46-.03,1.55,.46,3.13,1.51,4.29,1.29,1.36,3.19,1.99,5.03,2.02,1.25,0,2.5-.02,3.75,.01,1.11,.14,1.13,1.95,.01,2.09-1.57-.03-3.22,.34-4.44,1.39-1.54,1.36-2.25,3.49-2.12,5.5,.21,2.06,1.17,4.24,3.1,5.22,2.53,1.25,5.83,.82,7.91-1.11,.87-.85,1.42-1.99,1.58-3.19-1.09-.42-1.46-1.94-.61-2.76,.69-.76,2.05-.61,2.57,.27,.35,.45,.24,1.04,.25,1.57-.03,1.9-.68,3.83-1.97,5.25-2.77,3.03-7.72,3.61-11.21,1.54-2.18-1.38-3.45-3.87-3.72-6.39-.26-2.74,.74-5.66,2.83-7.5-1.81-.44-3.58-1.33-4.75-2.81-1.12-1.45-1.75-3.27-1.75-5.1-.04-2.02-.1-4.22-1.33-5.93-.4-.57-1.03-.89-1.71-.96-1-.27-.85-1.9,.18-2,3.76-.03,7.53,0,11.29,0Z"/>
  </g>
  <path class="cls-3" d="M11.06,175.23c0-1.63-.94-3.36-3.12-4.56-1.03-.58-2.74-1.34-3.82-1.92-1.3-.7-1.9-1.75-1.9-2.74,0-1.42,1.18-2.69,3.14-2.69,1.73,0,2.81,.7,3.41,1.56,.19,.29,.43,.41,.67,.41,.38,0,.72-.36,.72-.77,0-.77-1.78-2.47-4.78-2.47s-4.63,1.94-4.63,4.01c0,1.49,.86,3.02,2.64,3.91,1.3,.65,2.62,1.3,3.84,1.99,1.56,.89,2.26,2.14,2.26,3.29,0,1.8-1.63,3.26-3.94,3.26-1.94,0-3.43-.82-4.13-2.09-.17-.29-.41-.38-.65-.38-.41,0-.79,.31-.79,.74,0,.67,1.66,3.14,5.54,3.14,3.67,0,5.52-2.45,5.52-4.7Zm15.96,3.74c0-.12-.02-.24-.07-.36-.82-1.92-3.98-10.68-5.57-15.1-.31-.86-1.01-1.3-1.7-1.3-.65,0-1.32,.41-1.63,1.27-1.15,3.31-3.96,11.02-5.3,15.36-.02,.07-.05,.17-.05,.24,0,.41,.38,.65,.74,.65,.31,0,.65-.17,.77-.58,.36-1.18,1.1-3.43,1.73-5.35,.05-.14,.14-.29,.36-.29,.5-.02,2.4-.02,4.1-.02,1.22,0,2.38,0,2.76,.02,.24,0,.31,.1,.38,.29,.74,2.21,1.66,4.68,1.94,5.38,.14,.38,.46,.55,.74,.55,.41,0,.79-.31,.79-.77Zm-4.1-6.91c0,.07-.05,.12-.22,.12-.36,0-1.58,.02-2.86,.02s-2.54-.02-3.02-.02c-.19,0-.26-.05-.26-.14,0-.19,2.14-6.36,2.64-7.73,.14-.38,.34-.58,.53-.58s.36,.17,.48,.53c.38,1.2,1.92,5.33,2.66,7.58,.02,.07,.05,.14,.05,.22Zm11.28,6.94c-.02-2.3-.1-6.74-.1-10.49,0-1.7,.02-3.26,.05-4.42,0-.31,.17-.36,.38-.36,.36-.02,1.25-.05,2.4-.05,.74,0,1.61,.02,2.5,.05h.02c.46,0,.7-.34,.7-.7,0-.34-.24-.7-.72-.7h-.02c-1.39,.02-3.43,.05-5.5,.05-2.52,0-5.06-.02-6.53-.05h-.02c-.5,0-.77,.34-.77,.7,0,.34,.26,.7,.79,.7,1.15,0,2.5-.05,3.53-.05,1.61,0,1.66,.07,1.66,.41,.02,1.13,.05,2.88,.05,4.8,0,3.67-.05,7.99-.1,10.1v.02c0,.5,.41,.77,.84,.77s.84-.26,.84-.77v-.02Zm17.06,.94c4.99,0,8.71-3.53,8.71-8.93s-3.72-8.98-8.71-8.98-8.71,3.77-8.71,8.98,3.72,8.93,8.71,8.93Zm0-1.37c-3.96,0-7.15-3-7.15-7.56s3.19-7.63,7.15-7.63,7.15,3.05,7.15,7.63-3.19,7.56-7.15,7.56Zm14.29,.46c-.05-1.37-.05-2.76-.05-3.98,0-1.49,0-2.69,.02-3.26,0-.36,.22-.41,.38-.41,.19,0,.38-.02,.6-.02,.72,0,1.06,.26,1.22,.46,2.16,2.33,5.23,5.35,7.25,7.58,.22,.24,.48,.36,.7,.36,.46,0,.84-.46,.84-.91,0-.22-.07-.43-.24-.6-2.04-2.02-5.21-4.99-7.51-7.34-.12-.14-.19-.24-.19-.36,0-.1,.07-.22,.22-.36,6.43-6.58,6.48-6.82,6.48-7.15,0-.41-.41-.77-.84-.77-.22,0-.46,.1-.62,.31-1.01,1.34-4.18,4.8-6.05,6.74-.65,.65-1.06,.67-1.46,.67-.7,0-.77-.17-.77-.48,0-.5-.02-1.49-.02-2.69s.02-2.54,.05-3.82v-.02c0-.48-.41-.74-.79-.74-.41,0-.82,.26-.82,.74v.02c.05,1.87,.07,4.44,.07,7.18,0,3.02-.02,6.24-.07,8.86v.02c0,.46,.41,.7,.79,.7,.41,0,.82-.24,.82-.7v-.02Zm21.1,.91c4.99,0,8.71-3.53,8.71-8.93s-3.72-8.98-8.71-8.98-8.71,3.77-8.71,8.98,3.72,8.93,8.71,8.93Zm0-1.37c-3.96,0-7.15-3-7.15-7.56s3.19-7.63,7.15-7.63,7.15,3.05,7.15,7.63-3.19,7.56-7.15,7.56Zm28.61-6.12c1.1-.05,2.52-.07,3.38-.07,.67,0,1.54,0,1.54,1.13,0,1.32-1.39,4.85-5.95,4.85s-6.94-3.31-6.94-7.22,2.62-7.7,7.18-7.7c1.78,0,3.5,.65,4.56,2.09,.19,.26,.43,.38,.67,.38,.41,0,.79-.36,.79-.82,0-1.01-2.59-3.05-5.98-3.05-5.76,0-8.76,4.61-8.76,9.1,0,5.33,3.89,8.81,8.42,8.81,5.3,0,7.68-4.25,7.68-6.77,0-1.32-.72-2.16-2.23-2.18-.94-.02-2.33-.05-3.53-.05-.98,0-1.61,0-1.61,.74,0,.38,.26,.77,.74,.77h.02Zm17.09-1.51c2.47-.29,4.01-2.35,4.01-4.42s-1.51-4.08-5.02-4.32c-.36-.02-.89-.05-1.42-.05-1.85,0-4.25,0-4.32,2.62-.07,2.59-.05,9.67-.1,14.26,0,.48,.36,.7,.74,.7s.79-.24,.79-.72c0-.89-.07-5.5-.07-7.34,0-.31,.1-.46,.77-.46,.62,0,1.66,.05,1.99,.05,1.68,.05,3.7,4.06,4.68,5.81,1.3,2.35,2.95,2.74,3.48,2.74,.67,0,.98-.38,.98-.79,0-.38-.26-.77-.74-.82-1.08-.12-1.78-.84-2.45-1.92-.94-1.54-1.97-3.62-3.29-4.85-.17-.14-.26-.26-.26-.36,0-.07,.07-.12,.22-.12Zm2.5-4.39c0,1.58-1.27,3.22-3.5,3.38-.46,.02-1.25,.05-2.02,.05-1.97,0-2.33-.05-2.33-.41,.02-1.44,0-3.89,.05-4.49,.1-1.37,.94-1.7,2.71-1.7,.55,0,1.08,.02,1.42,.05,2.54,.14,3.67,1.61,3.67,3.12Zm20.37-3.58c0-.48-.41-.74-.79-.74s-.77,.24-.77,.74v.02c.02,1.08,.02,2.16,.02,3.26,0,2.18-.02,4.39-.02,6.55,0,3.77-2.64,5.69-5.23,5.69s-5.09-1.85-5.09-5.59v-1.22c0-1.97-.02-3.94-.02-5.9,0-.94,0-1.87,.02-2.78v-.02c0-.48-.38-.72-.77-.72-.41,0-.79,.24-.79,.72v.02c.05,1.58,.05,3.24,.05,4.9s0,3.34-.02,4.92v.1c0,4.73,3.31,7.06,6.65,7.06,3.6,0,6.82-2.57,6.74-7.25-.02-1.51-.02-2.86-.02-4.22,0-1.68,0-3.38,.05-5.5v-.02Zm14.57,12.26c0-1.63-.94-3.36-3.12-4.56-1.03-.58-2.74-1.34-3.82-1.92-1.3-.7-1.9-1.75-1.9-2.74,0-1.42,1.18-2.69,3.14-2.69,1.73,0,2.81,.7,3.41,1.56,.19,.29,.43,.41,.67,.41,.38,0,.72-.36,.72-.77,0-.77-1.78-2.47-4.78-2.47s-4.63,1.94-4.63,4.01c0,1.49,.86,3.02,2.64,3.91,1.3,.65,2.62,1.3,3.84,1.99,1.56,.89,2.26,2.14,2.26,3.29,0,1.8-1.63,3.26-3.94,3.26-1.94,0-3.43-.82-4.13-2.09-.17-.29-.41-.38-.65-.38-.41,0-.79,.31-.79,.74,0,.67,1.66,3.14,5.54,3.14,3.67,0,5.52-2.45,5.52-4.7Zm11.24,4.7c4.99,0,8.71-3.53,8.71-8.93s-3.72-8.98-8.71-8.98-8.71,3.77-8.71,8.98,3.72,8.93,8.71,8.93Zm0-1.37c-3.96,0-7.15-3-7.15-7.56s3.19-7.63,7.15-7.63,7.15,3.05,7.15,7.63-3.19,7.56-7.15,7.56Zm26.48-.48c-.05-2.5-.1-6.5-.1-10.08,0-1.87,0-3.62,.05-4.99v-.02c0-.53-.41-.82-.84-.82-.38,0-.79,.26-.79,.82v.02c.07,2.28,.14,11.18,.14,13.75,0,.72,0,1.18-.31,1.18-.14,0-.34-.14-.48-.38-1.78-2.78-6.72-11.74-8.21-14.23-.46-.74-1.15-1.13-1.82-1.13-.82,0-1.56,.6-1.56,1.9v.07c.05,2.14,.07,4.87,.07,7.7,0,2.45-.02,4.97-.07,7.18v.02c0,.48,.41,.72,.82,.72s.82-.24,.82-.72v-.02c-.07-2.5-.12-9.96-.12-13.03,0-1.68,0-2.02,.34-2.02,.17,0,.38,.19,.55,.48,1.3,2.23,6.48,11.69,8.18,14.42,.41,.65,1.03,.94,1.61,.94,.89,0,1.73-.65,1.73-1.73v-.02Z"/>
</svg>