<svg width="170" height="170" viewBox="0 0 170 170" fill="none" xmlns="http://www.w3.org/2000/svg">
<circle cx="85" cy="85" r="85" fill="#313333"/>
<path d="M105.873 112.251C105.873 109.077 105.336 106.245 104.262 103.755C103.188 101.216 101.405 98.9697 98.915 97.0166C96.4736 95.0146 93.251 93.1592 89.2471 91.4502C85.2432 89.7412 80.3115 88.0811 74.4521 86.4697C69.0811 85.0049 64.2227 83.418 59.877 81.709C55.5801 79.9512 51.8936 77.9492 48.8174 75.7031C45.79 73.457 43.4707 70.7959 41.8594 67.7197C40.248 64.5947 39.4424 60.9082 39.4424 56.6602C39.4424 52.5586 40.3213 48.8721 42.0791 45.6006C43.8369 42.3291 46.3027 39.5459 49.4766 37.251C52.6992 34.9072 56.459 33.125 60.7559 31.9043C65.1016 30.6348 69.8379 30 74.9648 30C82.1426 30 88.417 31.3672 93.7881 34.1016C99.1592 36.7871 103.358 40.5225 106.386 45.3076C109.413 50.0439 110.927 55.4883 110.927 61.6406H104.994C104.994 56.6113 103.749 52.1191 101.259 48.1641C98.8174 44.209 95.3506 41.1084 90.8584 38.8623C86.415 36.5674 81.1172 35.4199 74.9648 35.4199C68.6172 35.4199 63.2217 36.3965 58.7783 38.3496C54.3838 40.3027 51.0391 42.8906 48.7441 46.1133C46.498 49.2871 45.375 52.7539 45.375 56.5137C45.375 59.1992 45.8633 61.7139 46.8398 64.0576C47.8652 66.4014 49.5254 68.5498 51.8203 70.5029C54.1641 72.4561 57.3135 74.3115 61.2686 76.0693C65.2725 77.7783 70.2529 79.4385 76.21 81.0498C81.6787 82.4658 86.5859 84.0771 90.9316 85.8838C95.3262 87.6416 99.0859 89.7168 102.211 92.1094C105.336 94.502 107.729 97.334 109.389 100.605C111.049 103.877 111.879 107.71 111.879 112.104C111.879 116.45 110.951 120.332 109.096 123.75C107.24 127.119 104.652 130 101.332 132.393C98.0605 134.736 94.2031 136.519 89.7598 137.739C85.3652 138.96 80.6289 139.57 75.5508 139.57C70.9121 139.57 66.249 139.009 61.5615 137.886C56.9229 136.763 52.6748 134.956 48.8174 132.466C44.96 129.976 41.8594 126.704 39.5156 122.651C37.1719 118.599 36 113.667 36 107.856H41.9326C41.9326 112.837 42.958 117.036 45.0088 120.454C47.0596 123.823 49.7451 126.509 53.0654 128.511C56.3857 130.513 59.999 131.953 63.9053 132.832C67.8604 133.711 71.7422 134.15 75.5508 134.15C81.5078 134.15 86.7568 133.247 91.2979 131.44C95.8877 129.585 99.4521 127.021 101.991 123.75C104.579 120.43 105.873 116.597 105.873 112.251Z" fill="#F7FCFE"/>
<path d="M133.276 88.8135V126.167C132.104 127.827 129.98 129.707 126.904 131.807C123.877 133.906 119.849 135.737 114.819 137.3C109.79 138.813 103.711 139.57 96.582 139.57C90.4297 139.57 84.79 138.447 79.6631 136.201C74.585 133.955 70.1904 130.732 66.4795 126.533C62.7686 122.285 59.8877 117.256 57.8369 111.445C55.835 105.586 54.834 99.0918 54.834 91.9629V76.2891C54.834 69.3066 55.7861 63.0078 57.6904 57.3926C59.6436 51.7285 62.4023 46.8457 65.9668 42.7441C69.5312 38.6426 73.7793 35.4932 78.7109 33.2959C83.6914 31.0986 89.209 30 95.2637 30C103.076 30 109.644 31.3672 114.966 34.1016C120.337 36.7871 124.536 40.4492 127.563 45.0879C130.591 49.7266 132.446 54.9512 133.13 60.7617H127.197C126.465 56.2695 124.927 52.1191 122.583 48.3105C120.288 44.4531 116.919 41.3525 112.476 39.0088C108.032 36.6162 102.295 35.4199 95.2637 35.4199C89.9414 35.4199 85.1562 36.4209 80.9082 38.4229C76.6602 40.376 73.0225 43.1592 69.9951 46.7725C67.0166 50.3857 64.7217 54.6826 63.1104 59.6631C61.5479 64.6436 60.7666 70.1367 60.7666 76.1426V91.9629C60.7666 98.2129 61.5967 103.926 63.2568 109.102C64.9658 114.229 67.3828 118.672 70.5078 122.432C73.6816 126.191 77.4658 129.097 81.8604 131.147C86.3037 133.149 91.2109 134.15 96.582 134.15C102.246 134.15 107.178 133.589 111.377 132.466C115.625 131.343 119.067 130 121.704 128.438C124.39 126.826 126.27 125.337 127.344 123.97V94.3066H96.2891V88.8135H133.276Z" fill="#F7FCFE"/>
</svg>
