<?xml version="1.0" encoding="UTF-8"?>
<svg id="linkedin" xmlns="http://www.w3.org/2000/svg" viewBox="0 0 121.67 121.67">
  <path d="M60.83,0C27.29,0,0,27.29,0,60.83s27.29,60.83,60.83,60.83,60.84-27.29,60.84-60.83c0-33.54-27.29-60.83-60.84-60.83Zm0,115.67c-30.24,0-54.83-24.6-54.83-54.83S30.6,6,60.83,6s54.83,24.6,54.83,54.83c0,30.24-24.6,54.83-54.83,54.83Z"/>
  <rect x="29.94" y="47.94" width="14.08" height="36.73"/>
  <ellipse cx="36.83" cy="35.58" rx="7.12" ry="6.5"/>
  <path d="M79.4,47.11c-2.88,0-5.33,.53-7.33,1.57-2.01,1.05-3.99,2.8-5.95,5.24v-5.98h-13.11v36.73h14.08v-17.64c0-3.34,.53-5.66,1.59-6.95,1.06-1.29,2.44-1.94,4.15-1.94,1.54,0,2.74,.48,3.6,1.44s1.28,2.59,1.28,4.89v20.2h14.15v-23.35c0-4.84-1.1-8.42-3.31-10.74-2.2-2.32-5.25-3.48-9.15-3.48Z"/>
</svg>