<svg width="250" height="250" viewBox="0 0 250 250" fill="none" xmlns="http://www.w3.org/2000/svg">
<path d="M250 125C250 194.036 194.036 250 125 250C55.9644 250 0 194.036 0 125C0 55.9644 55.9644 0 125 0C194.036 0 250 55.9644 250 125Z" fill="#333232"/>
<path fill-rule="evenodd" clip-rule="evenodd" d="M125.107 188.458C122.9 190.507 120.331 192.221 117.4 193.6C112.867 195.733 107.333 196.8 100.8 196.8C95.8667 196.8 91.2667 195.933 87 194.2C82.7333 192.467 79.0667 190.067 76 187C72.9333 183.933 70.4667 180.4 68.6 176.4C66.8667 172.267 66 167.8 66 163V155.4H86.4V161.8C86.4 165.533 87.4667 168.933 89.6 172C91.8667 174.933 95.6 176.4 100.8 176.4C104.267 176.4 106.933 175.933 108.8 175C110.8 173.933 112.333 172.467 113.4 170.6C114.467 168.733 115.067 166.533 115.2 164C115.467 161.333 115.6 158.4 115.6 155.2C115.6 151.467 115.467 148.4 115.2 146C114.933 143.6 114.4 141.667 113.6 140.2C112.667 138.733 111.4 137.533 109.8 136.6C108.333 135.667 106.333 134.667 103.8 133.6L89.2 127.6C80.4 124 74.4667 119.267 71.4 113.4C68.4667 107.4 67 99.9333 67 91C67 85.6667 67.7333 80.6 69.2 75.8C70.6667 71 72.8667 66.8667 75.8 63.4C78.6 59.9333 82.1333 57.2 86.4 55.2C90.8 53.0667 96 52 102 52C107.067 52 111.667 52.9333 115.8 54.8C120.067 56.6667 123.733 59.1333 126.8 62.2C126.87 62.2729 126.939 62.3459 127.008 62.4191C130.156 59.7079 133.687 57.6348 137.6 56.1999C141.733 54.7332 145.867 53.9999 150 53.9999C154.133 53.9999 158.2 54.7332 162.2 56.1999C166.333 57.6666 170.067 59.7999 173.4 62.5999C176.6 65.5332 179.2 69.1999 181.2 73.5999C183.2 77.9999 184.2 83.0666 184.2 88.7999V95.9999H163.8V88.7999C163.8 83.8666 162.4 80.2666 159.6 77.9999C156.933 75.5999 153.733 74.3999 150 74.3999C146.267 74.3999 143 75.5999 140.2 77.9999C137.533 80.2666 136.2 83.8666 136.2 88.7999V164C136.2 168.933 137.533 172.6 140.2 175C143 177.267 146.267 178.4 150 178.4C153.733 178.4 156.933 177.267 159.6 175C162.4 172.6 163.8 168.933 163.8 164V137.2H147.6V119.2H184.2V164C184.2 170 183.2 175.133 181.2 179.4C179.2 183.667 176.6 187.2 173.4 190C170.067 192.933 166.333 195.133 162.2 196.6C158.2 198.067 154.133 198.8 150 198.8C145.867 198.8 141.733 198.067 137.6 196.6C133.6 195.133 130 192.933 126.8 190C126.215 189.509 125.651 188.995 125.107 188.458ZM115.8 94.2V89.6C115.8 84.9333 114.467 80.9333 112.2 77.6C110.067 74.1333 106.4 72.4 101.2 72.4C98.4 72.4 96.1333 72.9333 94.4 74C92.6667 75.0667 91.2667 76.4 90.2 78C89.1333 79.7333 88.4 81.7333 88 84C87.6 86.1333 87.4 88.4 87.4 90.8C87.4 93.6 87.4667 95.9333 87.6 97.8C87.8667 99.6667 88.4 101.333 89.2 102.8C90 104.267 91.1333 105.533 92.6 106.6C94.2 107.667 96.3333 108.733 99 109.8L114.6 116C115.007 116.156 115.407 116.314 115.8 116.475V94.2Z" fill="white"/>
</svg>
