<svg width="250" height="50" viewBox="0 0 413 50" fill="none" xmlns="http://www.w3.org/2000/svg">
<path d="M16.6115 42.004C22.2995 42.004 26.3675 38.44 26.3675 33.364C26.3675 27.244 21.5795 25.84 17.0075 24.472C13.5515 23.5 11.1395 22.384 11.1395 18.892C11.1395 15.976 13.2275 13.924 16.5755 13.924C20.4275 13.924 22.3355 16.408 22.3715 20.152L25.2155 20.188C25.1795 14.788 21.9755 11.188 16.5755 11.188C11.6795 11.188 8.29546 14.5 8.29546 18.856C8.29546 23.896 11.7515 25.804 16.0715 27.064C20.1035 28.18 23.4515 29.26 23.4515 33.328C23.4515 36.784 20.6435 39.268 16.6115 39.268C12.1115 39.268 9.55546 36.136 9.51946 31.996H6.63946C6.67546 37.792 10.5275 42.004 16.6115 42.004ZM53.1115 41.5H56.1355L44.5435 11.872H41.3395L29.3155 41.5H32.4115L34.3915 36.532H51.1675L53.1115 41.5ZM35.4355 33.94L42.9235 15.256L50.1595 33.94H35.4355ZM62.3801 41.5H65.2961V14.608H72.2441V11.8H55.4321V14.608H62.3801V41.5ZM104.038 26.632C104.038 18.424 97.5937 11.26 88.6657 11.26C79.7017 11.26 73.2577 18.424 73.2577 26.632C73.2577 34.876 79.7017 42.04 88.6657 42.04C97.5937 42.04 104.038 34.876 104.038 26.632ZM101.122 26.632C101.122 33.58 95.6857 39.124 88.6657 39.124C81.6097 39.124 76.1737 33.58 76.1737 26.632C76.1737 19.684 81.6097 14.176 88.6657 14.176C95.6857 14.176 101.122 19.72 101.122 26.632ZM109.655 41.536H112.571V25.804L125.351 41.5H129.167L115.379 25.12L126.575 11.872H122.867L112.571 24.508V11.872H109.655V41.536ZM159.659 26.632C159.659 18.424 153.215 11.26 144.287 11.26C135.323 11.26 128.879 18.424 128.879 26.632C128.879 34.876 135.323 42.04 144.287 42.04C153.215 42.04 159.659 34.876 159.659 26.632ZM156.743 26.632C156.743 33.58 151.307 39.124 144.287 39.124C137.231 39.124 131.795 33.58 131.795 26.632C131.795 19.684 137.231 14.176 144.287 14.176C151.307 14.176 156.743 19.72 156.743 26.632Z" fill="#330A0E"/>
<path fill-rule="evenodd" clip-rule="evenodd" d="M194.557 30.3409L192.368 27.4729L199.608 0L211.732 20.5292L212.406 28.5295L208.028 24.7558L194.557 30.3409ZM182.632 22.6781L193.745 45.4715L195.598 38.5278L197.45 36.2635L187.01 23.5838L182.632 22.6781ZM171 28.1226L181.103 22.6884L182.956 26.4622L171 28.1226ZM194.924 31.7996L197.955 35.2714L208.059 26.2144L194.924 31.7996ZM234.248 14.5801L214.395 30.31L217.258 32.8761L222.647 33.7818L241.241 12.0937L234.248 14.5801ZM197.154 38.5277L199.343 41.8486L236.388 49.9999L225.106 35.6597L217.024 34.3011L197.154 38.5277ZM194.587 45.8166L196.271 39.3257L198.292 42.6466L206.038 44.3071L194.587 45.8166ZM197.69 37.0279L208.804 26.6124L216.381 33.2542L197.69 37.0279Z" fill="#AD002D"/>
<path d="M263.936 42.04C272.792 42.04 279.236 34.948 279.272 26.776H261.992V29.44H275.924C274.808 35.02 269.876 39.196 263.936 39.196C256.772 39.196 251.408 33.616 251.408 26.668C251.408 19.72 256.808 14.176 263.936 14.176C269.732 14.176 274.484 18.1 275.708 23.392H278.912C277.508 16.624 271.64 11.26 263.936 11.26C254.972 11.26 248.528 18.424 248.528 26.632C248.528 34.876 254.972 42.04 263.936 42.04ZM302.818 22.708C302.818 17.056 299.578 11.836 290.65 11.836H284.89V41.536H287.806V33.544H290.902C292.234 33.544 293.422 33.4 294.538 33.184L299.218 41.5H302.674L297.202 32.284C301.162 30.412 302.818 26.668 302.818 22.708ZM287.806 30.7V14.68H290.974C296.734 14.68 299.974 17.632 299.974 22.708C299.974 27.568 296.842 30.7 290.974 30.7H287.806ZM318.402 41.968C325.17 41.968 328.698 36.964 328.698 30.196V11.872H325.782V30.268C325.782 35.128 323.694 39.124 318.402 39.124C313.146 39.124 311.094 35.128 311.094 30.268V11.872H308.178V30.196C308.178 36.928 311.634 41.968 318.402 41.968ZM332.208 41.752C337.284 41.752 340.848 38.476 340.848 32.86V20.512C340.848 16.588 343.08 14.536 346.608 14.536V11.656C341.496 11.656 337.932 14.86 337.932 20.476V32.86C337.932 36.82 335.7 38.872 332.208 38.872V41.752ZM379.089 26.632C379.089 18.424 372.645 11.26 363.717 11.26C354.753 11.26 348.309 18.424 348.309 26.632C348.309 34.876 354.753 42.04 363.717 42.04C372.645 42.04 379.089 34.876 379.089 26.632ZM376.173 26.632C376.173 33.58 370.737 39.124 363.717 39.124C356.661 39.124 351.225 33.58 351.225 26.632C351.225 19.684 356.661 14.176 363.717 14.176C370.737 14.176 376.173 19.72 376.173 26.632ZM384.707 41.5H387.623V17.02L402.995 41.5H405.839V11.836H402.923V36.208L387.659 11.872H384.707V41.5Z" fill="#330A0E"/>
</svg>
