<?xml version="1.0" encoding="UTF-8"?>
<svg id="Layer_1" data-name="Layer 1" xmlns="http://www.w3.org/2000/svg" viewBox="0 0 326.32 271.21">
  <defs>
    <style>
      .cls-1 {
        letter-spacing: 0em;
      }

      .cls-2 {
        fill: #f7b6af;
      }

      .cls-3 {
        fill: #3d5561;
      }

      .cls-4 {
        fill: none;
        stroke: #3d5561;
        stroke-miterlimit: 10;
      }

      .cls-5 {
        fill: #333232;
        font-family: AktivGrotesk-SemiBold, 'Aktiv Grotesk';
        font-size: 32px;
        font-weight: 600;
      }
    </style>
  </defs>
  <g>
    <path class="cls-4" d="M56.04,42.83c8.99-3.58,18.05-.26,26.38,3.48,3.97,1.78,7.79,3.9,12,5.12,6.3,1.82,12.96,2.37,19.14-.11,5.79-2.32,10.66-6.44,15.2-10.62"/>
    <path class="cls-4" d="M79.5,14.04c12.53,8.06,16.39,33.04,33.9,32.98,5.56-.02,11.52-2.23,15.36-6.32"/>
    <path class="cls-4" d="M79.5,72.96c1.34-3.94,5.01-6.52,8.59-8.34,7.37-3.73,15.6-5.61,23.05-9.26,6.96-3.41,13.41-8.04,17.62-14.67"/>
    <g>
      <g>
        <path class="cls-2" d="M56.71,23.29c-.06-.75-1.11-1.17-1.51-.41-.74,1.37-1.55,2.68-2.43,3.96-.91-1.01-1.83-2.01-2.74-3.02-.45-.5-1.45-.13-1.39,.57,.21,2.36,.63,4.67,1.42,6.92,.86,2.44,3.42,8.69,4.55,7.95,1.84-1.2,2.53-10.51,2.11-15.97h0Z"/>
        <path class="cls-2" d="M73.27,34.48c.62-.43,.46-1.54-.4-1.52-1.56,.05-3.1,0-4.64-.13,.42-1.3,.83-2.59,1.25-3.89,.21-.64-.61-1.32-1.19-.92-1.94,1.36-3.73,2.88-5.28,4.69-1.69,1.96-5.82,7.3-4.62,7.91,1.96,.99,10.37-3.06,14.89-6.15h-.01Z"/>
        <path class="cls-2" d="M71.85,54.41c.68,.33,1.57-.37,1.11-1.1-.82-1.33-1.55-2.69-2.2-4.09,1.33-.29,2.66-.57,3.99-.86,.66-.14,.84-1.19,.2-1.49-2.15-1-4.36-1.79-6.7-2.24-2.54-.48-9.23-1.4-9.16-.05,.12,2.19,7.82,7.46,12.76,9.83Z"/>
        <path class="cls-2" d="M53.86,63.12c.06,.75,1.1,1.17,1.51,.41,.74-1.37,1.56-2.68,2.44-3.95,.91,1.01,1.82,2.02,2.74,3.03,.45,.5,1.45,.13,1.39-.57-.2-2.36-.62-4.67-1.4-6.92-.85-2.45-3.39-8.7-4.53-7.96-1.84,1.19-2.56,10.5-2.15,15.96Z"/>
        <path class="cls-2" d="M37.33,51.89c-.62,.42-.47,1.54,.4,1.52,1.56-.04,3.1,0,4.64,.15-.42,1.29-.84,2.59-1.26,3.88-.21,.64,.61,1.32,1.19,.92,1.95-1.36,3.74-2.87,5.3-4.67,1.69-1.96,5.84-7.28,4.64-7.9-1.95-1-10.38,3.03-14.91,6.1Z"/>
        <path class="cls-2" d="M38.82,31.96c-.68-.33-1.57,.36-1.12,1.1,.81,1.33,1.54,2.69,2.19,4.1-1.33,.28-2.66,.57-3.99,.85-.66,.14-.84,1.19-.2,1.49,2.15,1.01,4.35,1.81,6.69,2.26,2.54,.49,9.23,1.43,9.16,.08-.11-2.19-7.8-7.48-12.73-9.87h0Z"/>
      </g>
      <path class="cls-3" d="M55.42,41.54c-2.09,0-2.1,3.25,0,3.25s2.1-3.25,0-3.25Z"/>
    </g>
    <g>
      <g>
        <path class="cls-2" d="M134.82,16.9c-.06-.75-1.11-1.17-1.51-.41-.74,1.37-1.55,2.68-2.43,3.96-.91-1.01-1.83-2.01-2.74-3.02-.45-.5-1.45-.13-1.39,.57,.21,2.36,.63,4.67,1.42,6.92,.86,2.44,3.42,8.69,4.55,7.95,1.84-1.2,2.53-10.51,2.11-15.97h-.01Z"/>
        <path class="cls-2" d="M151.38,28.08c.62-.43,.46-1.54-.4-1.52-1.56,.05-3.1,0-4.64-.13,.42-1.3,.83-2.59,1.25-3.89,.21-.64-.61-1.32-1.19-.92-1.94,1.36-3.73,2.88-5.28,4.69-1.69,1.96-5.82,7.3-4.62,7.91,1.96,.99,10.37-3.06,14.89-6.15h-.01Z"/>
        <path class="cls-2" d="M149.95,48.01c.68,.33,1.57-.37,1.11-1.1-.82-1.33-1.55-2.69-2.2-4.09,1.33-.29,2.66-.57,3.99-.86,.66-.14,.84-1.19,.2-1.49-2.15-1-4.36-1.79-6.7-2.24-2.54-.48-9.23-1.4-9.16-.05,.12,2.19,7.82,7.46,12.76,9.83Z"/>
        <path class="cls-2" d="M131.97,56.73c.06,.75,1.1,1.17,1.51,.41,.74-1.37,1.56-2.68,2.44-3.95,.91,1.01,1.82,2.02,2.74,3.03,.45,.5,1.45,.13,1.39-.57-.2-2.36-.62-4.67-1.4-6.92-.85-2.45-3.39-8.7-4.53-7.96-1.84,1.19-2.56,10.5-2.15,15.96h0Z"/>
        <path class="cls-2" d="M115.44,45.49c-.62,.42-.47,1.54,.4,1.52,1.56-.04,3.1,0,4.64,.15-.42,1.29-.84,2.59-1.26,3.88-.21,.64,.61,1.32,1.19,.92,1.95-1.36,3.74-2.87,5.3-4.67,1.69-1.96,5.84-7.28,4.64-7.9-1.95-1-10.38,3.03-14.91,6.1Z"/>
        <path class="cls-2" d="M116.92,25.57c-.68-.33-1.57,.36-1.12,1.1,.81,1.33,1.54,2.69,2.19,4.1-1.33,.28-2.66,.57-3.99,.85-.66,.14-.84,1.19-.2,1.49,2.15,1.01,4.35,1.81,6.69,2.26,2.54,.49,9.23,1.43,9.16,.08-.11-2.19-7.8-7.48-12.73-9.87h0Z"/>
      </g>
      <path class="cls-3" d="M133.52,35.15c-2.09,0-2.1,3.25,0,3.25s2.1-3.25,0-3.25Z"/>
    </g>
    <g>
      <g>
        <path class="cls-2" d="M83.16,59.76c.07-.52-.58-.94-.96-.49-.69,.82-1.42,1.59-2.19,2.33l-1.43-2.42c-.24-.4-.96-.29-1.02,.19-.19,1.62-.22,3.24,0,4.86,.24,1.77,1.09,6.33,1.96,5.99,1.41-.55,3.17-6.73,3.65-10.47h-.01Z"/>
        <path class="cls-2" d="M92.75,69.61c.48-.2,.53-.97-.06-1.08-1.06-.19-2.09-.43-3.11-.74,.46-.81,.92-1.63,1.38-2.44,.23-.4-.23-.98-.67-.78-1.5,.65-2.92,1.42-4.21,2.42-1.41,1.09-4.94,4.1-4.22,4.69,1.18,.94,7.41-.61,10.89-2.06h0Z"/>
        <path class="cls-2" d="M89.01,82.85c.41,.32,1.11-.03,.91-.59-.37-1.01-.67-2.03-.91-3.06,.94,0,1.87-.01,2.81-.02,.46,0,.73-.68,.34-.98-1.31-.98-2.69-1.82-4.2-2.44-1.65-.68-6.02-2.24-6.16-1.31-.23,1.49,4.23,6.12,7.22,8.41h-.01Z"/>
        <path class="cls-2" d="M75.67,86.21c-.07,.52,.58,.94,.96,.49,.69-.82,1.42-1.59,2.2-2.32,.47,.81,.95,1.61,1.42,2.42,.23,.4,.96,.29,1.02-.19,.19-1.62,.23-3.24,.02-4.86-.23-1.77-1.07-6.34-1.94-6-1.41,.55-3.19,6.72-3.68,10.46h0Z"/>
        <path class="cls-2" d="M66.11,76.33c-.48,.2-.53,.97,.05,1.08,1.06,.19,2.09,.44,3.11,.75-.46,.81-.93,1.63-1.39,2.44-.23,.4,.23,.98,.67,.79,1.5-.64,2.92-1.41,4.22-2.41,1.42-1.08,4.96-4.09,4.23-4.67-1.18-.95-7.42,.59-10.9,2.03h0Z"/>
        <path class="cls-2" d="M69.89,63.11c-.41-.32-1.11,.03-.91,.59,.36,1.01,.66,2.03,.9,3.07-.94,0-1.87,0-2.81,.01-.46,0-.73,.68-.34,.97,1.31,.98,2.68,1.83,4.19,2.46,1.65,.69,6.02,2.25,6.16,1.33,.23-1.49-4.21-6.13-7.2-8.43h0Z"/>
      </g>
      <path class="cls-3" d="M79.74,71.88c-1.41-.29-1.87,1.9-.45,2.19,1.41,.29,1.87-1.9,.45-2.19Z"/>
    </g>
    <g>
      <g>
        <path class="cls-2" d="M77.71,.44c-.14-.5-.9-.64-1.08-.07-.31,1.03-.69,2.02-1.11,3-.75-.56-1.5-1.11-2.26-1.67-.37-.28-1,.11-.86,.57,.46,1.57,1.05,3.07,1.89,4.48,.91,1.53,3.47,5.41,4.14,4.76,1.08-1.06,.3-7.43-.72-11.06h0Z"/>
        <path class="cls-2" d="M90.39,5.77c.36-.37,.11-1.1-.47-.97-1.05,.24-2.09,.41-3.15,.53,.11-.93,.21-1.86,.32-2.79,.05-.46-.59-.81-.93-.46-1.13,1.18-2.13,2.45-2.94,3.87-.88,1.55-2.95,5.71-2.06,5.96,1.45,.41,6.59-3.45,9.23-6.14Z"/>
        <path class="cls-2" d="M92.09,19.42c.5,.13,1.01-.46,.6-.89-.73-.79-1.4-1.61-2.03-2.47l2.58-1.11c.42-.18,.41-.92-.07-1.03-1.59-.39-3.18-.63-4.82-.61-1.78,.01-6.42,.29-6.19,1.19,.37,1.46,6.28,3.99,9.93,4.93h0Z"/>
        <path class="cls-2" d="M81.12,27.71c.14,.5,.9,.64,1.08,.08,.32-1.03,.69-2.02,1.12-2.99,.75,.56,1.5,1.12,2.25,1.68,.37,.28,1-.1,.86-.57-.45-1.57-1.05-3.07-1.87-4.48-.9-1.54-3.45-5.42-4.12-4.77-1.08,1.05-.32,7.43,.69,11.06h-.01Z"/>
        <path class="cls-2" d="M68.46,22.34c-.36,.37-.11,1.1,.47,.97,1.05-.24,2.09-.41,3.15-.52-.11,.93-.22,1.86-.33,2.79-.05,.46,.59,.81,.92,.46,1.13-1.18,2.14-2.44,2.95-3.86,.88-1.55,2.97-5.7,2.07-5.95-1.45-.41-6.6,3.43-9.24,6.12h.01Z"/>
        <path class="cls-2" d="M66.79,8.69c-.5-.13-1.01,.46-.61,.89,.73,.79,1.4,1.61,2.03,2.47l-2.58,1.11c-.42,.18-.41,.91,.06,1.03,1.58,.39,3.18,.64,4.82,.63,1.78,0,6.42-.27,6.19-1.17-.37-1.46-6.27-4-9.91-4.96Z"/>
      </g>
      <path class="cls-3" d="M79.28,12.93c-1.41,.28-.98,2.47,.44,2.19,1.41-.28,.98-2.47-.44-2.19Z"/>
    </g>
  </g>
  <g>
    <path class="cls-4" d="M46.86,95.7c2.47,9.36-1.91,17.95-6.63,25.77-2.25,3.73-4.81,7.27-6.52,11.3-2.57,6.04-3.91,12.58-2.2,19.01,1.6,6.03,5.11,11.36,8.72,16.37"/>
    <path class="cls-4" d="M72.62,122.45c-9.51,11.47-34.78,12.29-36.82,29.68-.65,5.52,.83,11.7,4.43,16.01"/>
    <path class="cls-4" d="M14.13,115.36c3.75,1.81,5.87,5.76,7.24,9.53,2.82,7.77,3.69,16.16,6.42,23.99,2.55,7.32,6.37,14.28,12.44,19.26"/>
    <g>
      <g>
        <path class="cls-2" d="M66.18,98.71c.75,.03,1.29-.96,.59-1.45-1.27-.9-2.48-1.86-3.64-2.89l3.33-2.36c.55-.39,.3-1.42-.4-1.45-2.37-.08-4.71,.07-7.04,.58-2.53,.56-9.04,2.35-8.44,3.56,.97,1.97,10.13,3.77,15.6,4.01Z"/>
        <path class="cls-2" d="M53.08,113.81c.35,.67,1.48,.64,1.55-.22,.14-1.55,.37-3.08,.69-4.59,1.24,.57,2.47,1.14,3.71,1.7,.61,.28,1.38-.45,1.05-1.07-1.12-2.09-2.41-4.05-4.02-5.81-1.75-1.91-6.54-6.66-7.3-5.54-1.22,1.82,1.79,10.66,4.31,15.52h.01Z"/>
        <path class="cls-2" d="M33.47,109.99c-.41,.64,.18,1.6,.96,1.24,1.42-.65,2.85-1.21,4.32-1.7,.12,1.35,.25,2.71,.37,4.06,.06,.67,1.08,.98,1.45,.38,1.26-2.01,2.31-4.11,3.03-6.38,.79-2.47,2.5-8.99,1.15-9.09-2.19-.15-8.35,6.87-11.3,11.48h.02Z"/>
        <path class="cls-2" d="M26.98,91.09c-.75-.04-1.3,.95-.59,1.45,1.27,.9,2.47,1.87,3.63,2.9-1.11,.78-2.22,1.57-3.33,2.35-.55,.39-.31,1.42,.4,1.45,2.37,.08,4.71-.05,7.04-.56,2.53-.55,9.04-2.32,8.45-3.54-.96-1.97-10.12-3.8-15.59-4.06h-.01Z"/>
        <path class="cls-2" d="M40.12,76.04c-.35-.67-1.47-.65-1.55,.21-.15,1.55-.38,3.07-.7,4.59-1.23-.57-2.47-1.14-3.7-1.71-.61-.28-1.39,.45-1.06,1.07,1.11,2.1,2.4,4.06,4,5.82,1.74,1.92,6.53,6.68,7.28,5.56,1.23-1.82-1.76-10.67-4.27-15.53h0Z"/>
        <path class="cls-2" d="M59.73,79.91c.41-.63-.17-1.6-.96-1.24-1.42,.65-2.85,1.2-4.33,1.68-.12-1.35-.24-2.71-.36-4.06-.06-.67-1.08-.98-1.45-.38-1.26,2.01-2.32,4.11-3.05,6.37-.79,2.47-2.53,8.99-1.18,9.08,2.19,.16,8.37-6.85,11.33-11.45h0Z"/>
      </g>
      <path class="cls-3" d="M48.22,95.23c.25-2.08-2.98-2.47-3.23-.39s2.98,2.47,3.23,.39Z"/>
    </g>
    <g>
      <g>
        <path class="cls-2" d="M63.13,177.02c.75,.03,1.29-.96,.59-1.45-1.27-.9-2.48-1.86-3.64-2.89,1.11-.79,2.22-1.57,3.33-2.36,.55-.39,.3-1.42-.4-1.45-2.37-.08-4.71,.07-7.04,.58-2.53,.56-9.04,2.35-8.44,3.56,.97,1.97,10.13,3.77,15.6,4.01Z"/>
        <path class="cls-2" d="M50.04,192.11c.35,.67,1.48,.64,1.55-.22,.14-1.55,.37-3.08,.69-4.59,1.24,.57,2.47,1.14,3.71,1.7,.61,.28,1.38-.45,1.05-1.07-1.12-2.09-2.41-4.05-4.02-5.81-1.75-1.91-6.54-6.66-7.3-5.54-1.22,1.82,1.79,10.66,4.31,15.52h.01Z"/>
        <path class="cls-2" d="M30.42,188.3c-.41,.64,.18,1.6,.96,1.24,1.42-.65,2.85-1.21,4.32-1.7,.12,1.35,.25,2.71,.37,4.06,.06,.67,1.08,.98,1.45,.38,1.26-2.01,2.31-4.11,3.03-6.38,.79-2.47,2.5-8.99,1.15-9.09-2.19-.15-8.35,6.87-11.3,11.48h.02Z"/>
        <path class="cls-2" d="M23.93,169.4c-.75-.03-1.3,.95-.59,1.45,1.27,.9,2.47,1.87,3.63,2.9-1.11,.78-2.22,1.57-3.33,2.35-.55,.39-.31,1.42,.4,1.45,2.37,.08,4.71-.05,7.04-.56,2.53-.55,9.04-2.32,8.45-3.54-.96-1.97-10.12-3.8-15.59-4.06h-.01Z"/>
        <path class="cls-2" d="M37.07,154.34c-.35-.67-1.47-.65-1.55,.21-.15,1.55-.38,3.07-.7,4.59-1.23-.57-2.47-1.14-3.7-1.71-.61-.28-1.39,.44-1.06,1.07,1.11,2.1,2.4,4.06,4,5.82,1.74,1.92,6.53,6.68,7.28,5.56,1.23-1.82-1.76-10.67-4.27-15.53h0Z"/>
        <path class="cls-2" d="M56.68,158.21c.41-.64-.17-1.6-.96-1.24-1.42,.65-2.85,1.2-4.33,1.68-.12-1.35-.24-2.71-.36-4.06-.06-.67-1.08-.98-1.45-.38-1.26,2.01-2.32,4.11-3.05,6.37-.79,2.47-2.53,8.99-1.18,9.08,2.19,.16,8.37-6.85,11.33-11.45h0Z"/>
      </g>
      <path class="cls-3" d="M45.17,173.54c.25-2.08-2.98-2.47-3.23-.39s2.98,2.47,3.23,.39Z"/>
    </g>
    <g>
      <g>
        <path class="cls-2" d="M26.79,120.58c.5,.13,1.01-.46,.6-.9-.73-.78-1.41-1.6-2.05-2.46,.86-.38,1.71-.75,2.57-1.13,.42-.19,.4-.92-.07-1.03-1.59-.38-3.19-.61-4.82-.59-1.78,.02-6.42,.32-6.18,1.22,.38,1.46,6.3,3.96,9.95,4.88h0Z"/>
        <path class="cls-2" d="M15.86,128.92c.14,.5,.9,.64,1.08,.07,.31-1.03,.68-2.02,1.11-3,.75,.56,1.51,1.11,2.26,1.67,.37,.27,1-.11,.86-.58-.46-1.57-1.06-3.07-1.9-4.47-.91-1.53-3.48-5.4-4.14-4.75-1.08,1.06-.28,7.43,.74,11.06h-.01Z"/>
        <path class="cls-2" d="M3.17,123.61c-.36,.37-.1,1.1,.48,.97,1.05-.24,2.09-.42,3.15-.54-.11,.93-.21,1.86-.32,2.79-.05,.46,.59,.81,.93,.46,1.13-1.18,2.13-2.45,2.93-3.88,.87-1.55,2.94-5.71,2.05-5.96-1.45-.41-6.58,3.46-9.22,6.16Z"/>
        <path class="cls-2" d="M1.44,109.97c-.5-.13-1.01,.46-.6,.9,.73,.79,1.41,1.6,2.04,2.46-.86,.37-1.72,.75-2.58,1.12-.42,.18-.41,.92,.07,1.03,1.59,.39,3.18,.62,4.82,.61,1.78-.02,6.42-.3,6.19-1.2-.37-1.46-6.29-3.98-9.94-4.91h0Z"/>
        <path class="cls-2" d="M12.4,101.66c-.14-.5-.9-.64-1.08-.08-.32,1.03-.69,2.02-1.12,3-.75-.56-1.5-1.12-2.26-1.67-.37-.28-1,.11-.86,.57,.46,1.57,1.05,3.07,1.88,4.48,.91,1.54,3.46,5.41,4.13,4.76,1.08-1.05,.31-7.43-.71-11.06,0,0,.02,0,.02,0Z"/>
        <path class="cls-2" d="M25.07,107.01c.36-.37,.11-1.1-.47-.97-1.05,.24-2.09,.41-3.15,.53,.11-.93,.22-1.86,.32-2.79,.05-.46-.59-.81-.93-.46-1.13,1.18-2.14,2.44-2.94,3.87-.88,1.55-2.96,5.7-2.06,5.96,1.45,.41,6.59-3.44,9.23-6.13h0Z"/>
      </g>
      <path class="cls-3" d="M15.18,115.72c.46-1.36-1.66-2.08-2.12-.71-.46,1.36,1.66,2.08,2.12,.71Z"/>
    </g>
    <g>
      <g>
        <path class="cls-2" d="M86.34,122.31c.51-.08,.75-.82,.2-1.06-.98-.44-1.92-.92-2.84-1.46,.64-.68,1.29-1.36,1.93-2.04,.32-.34,.01-1-.47-.92-1.61,.27-3.17,.68-4.67,1.33-1.63,.72-5.79,2.79-5.22,3.53,.92,1.2,7.34,1.19,11.07,.62Z"/>
        <path class="cls-2" d="M79.52,134.25c.32,.41,1.08,.24,1.02-.35-.11-1.07-.16-2.13-.15-3.19,.91,.22,1.82,.44,2.73,.65,.45,.11,.87-.49,.57-.86-1.03-1.26-2.17-2.41-3.49-3.38-1.44-1.06-5.31-3.62-5.67-2.76-.58,1.39,2.63,6.96,4.99,9.9h0Z"/>
        <path class="cls-2" d="M65.77,134.3c-.19,.48,.33,1.06,.82,.71,.87-.63,1.76-1.2,2.69-1.72,.27,.9,.53,1.8,.8,2.69,.13,.44,.86,.51,1.03,.06,.58-1.53,1.01-3.08,1.19-4.71,.2-1.77,.49-6.41-.44-6.29-1.5,.19-4.71,5.76-6.09,9.26Z"/>
        <path class="cls-2" d="M58.86,122.41c-.51,.08-.75,.82-.21,1.06,.98,.44,1.92,.93,2.84,1.47-.65,.68-1.29,1.36-1.94,2.03-.32,.33-.02,1,.46,.92,1.61-.26,3.17-.67,4.68-1.32,1.63-.71,5.79-2.78,5.23-3.52-.91-1.2-7.34-1.21-11.07-.65h0Z"/>
        <path class="cls-2" d="M65.71,110.49c-.32-.41-1.08-.24-1.02,.35,.11,1.07,.15,2.13,.14,3.19l-2.73-.66c-.45-.11-.88,.49-.57,.86,1.03,1.27,2.16,2.42,3.48,3.39,1.43,1.06,5.3,3.63,5.66,2.78,.58-1.39-2.61-6.96-4.96-9.91Z"/>
        <path class="cls-2" d="M79.46,110.48c.19-.48-.33-1.06-.81-.71-.87,.63-1.77,1.19-2.7,1.72-.26-.9-.53-1.8-.79-2.69-.13-.44-.86-.52-1.03-.06-.58,1.53-1.01,3.08-1.2,4.71-.2,1.77-.5,6.41,.42,6.29,1.5-.19,4.73-5.74,6.11-9.25h0Z"/>
      </g>
      <path class="cls-3" d="M73.75,122.36c-.11-1.44-2.34-1.27-2.23,.17,.11,1.44,2.34,1.27,2.23-.17Z"/>
    </g>
  </g>
  <g>
    <path class="cls-4" d="M279.46,95.7c-2.47,9.36,1.91,17.95,6.63,25.77,2.25,3.73,4.81,7.27,6.52,11.3,2.57,6.04,3.91,12.58,2.2,19.01-1.6,6.03-5.11,11.36-8.72,16.37"/>
    <path class="cls-4" d="M253.7,122.45c9.51,11.47,34.78,12.29,36.82,29.68,.65,5.52-.83,11.7-4.43,16.01"/>
    <path class="cls-4" d="M312.19,115.36c-3.75,1.81-5.87,5.76-7.24,9.53-2.82,7.77-3.69,16.16-6.42,23.99-2.55,7.32-6.37,14.28-12.44,19.26"/>
    <g>
      <g>
        <path class="cls-2" d="M260.14,98.71c-.75,.03-1.29-.96-.59-1.45,1.27-.9,2.48-1.86,3.64-2.89-1.11-.79-2.22-1.57-3.33-2.36-.55-.39-.3-1.42,.4-1.45,2.37-.08,4.71,.07,7.04,.58,2.53,.56,9.04,2.35,8.44,3.56-.97,1.97-10.13,3.77-15.6,4.01h0Z"/>
        <path class="cls-2" d="M273.24,113.81c-.35,.67-1.48,.64-1.55-.22-.14-1.55-.37-3.08-.69-4.59-1.24,.57-2.47,1.14-3.71,1.7-.61,.28-1.38-.45-1.05-1.07,1.12-2.09,2.41-4.05,4.02-5.81,1.75-1.91,6.54-6.66,7.3-5.54,1.22,1.82-1.79,10.66-4.31,15.52h-.01Z"/>
        <path class="cls-2" d="M292.85,109.99c.41,.64-.18,1.6-.96,1.24-1.42-.65-2.85-1.21-4.32-1.7-.12,1.35-.25,2.71-.37,4.06-.06,.67-1.08,.98-1.45,.38-1.26-2.01-2.31-4.11-3.03-6.38-.79-2.47-2.5-8.99-1.15-9.09,2.19-.15,8.35,6.87,11.3,11.48h-.02Z"/>
        <path class="cls-2" d="M299.34,91.09c.75-.04,1.3,.95,.59,1.45-1.27,.9-2.47,1.87-3.63,2.9,1.11,.78,2.22,1.57,3.33,2.35,.55,.39,.31,1.42-.4,1.45-2.37,.08-4.71-.05-7.04-.56-2.53-.55-9.04-2.32-8.45-3.54,.96-1.97,10.12-3.8,15.59-4.06h.01Z"/>
        <path class="cls-2" d="M286.2,76.04c.35-.67,1.47-.65,1.55,.21,.15,1.55,.38,3.07,.7,4.59,1.23-.57,2.47-1.14,3.7-1.71,.61-.28,1.39,.45,1.05,1.07-1.11,2.1-2.4,4.06-4,5.82-1.74,1.92-6.53,6.68-7.28,5.56-1.23-1.82,1.76-10.67,4.27-15.53h.01Z"/>
        <path class="cls-2" d="M266.6,79.91c-.41-.63,.17-1.6,.96-1.24,1.42,.65,2.85,1.2,4.33,1.68,.12-1.35,.24-2.71,.36-4.06,.06-.67,1.08-.98,1.45-.38,1.26,2.01,2.32,4.11,3.05,6.37,.79,2.47,2.53,8.99,1.18,9.08-2.19,.16-8.37-6.85-11.33-11.45h0Z"/>
      </g>
      <path class="cls-3" d="M278.1,95.23c-.25-2.08,2.98-2.47,3.23-.39s-2.98,2.47-3.23,.39Z"/>
    </g>
    <g>
      <g>
        <path class="cls-2" d="M263.19,177.02c-.75,.03-1.29-.96-.59-1.45,1.27-.9,2.48-1.86,3.64-2.89-1.11-.79-2.22-1.57-3.33-2.36-.55-.39-.3-1.42,.4-1.45,2.37-.08,4.71,.07,7.04,.58,2.53,.56,9.04,2.35,8.44,3.56-.97,1.97-10.13,3.77-15.6,4.01h0Z"/>
        <path class="cls-2" d="M276.29,192.11c-.35,.67-1.48,.64-1.55-.22-.14-1.55-.37-3.08-.69-4.59-1.24,.57-2.47,1.14-3.71,1.7-.61,.28-1.38-.45-1.05-1.07,1.12-2.09,2.41-4.05,4.02-5.81,1.75-1.91,6.54-6.66,7.3-5.54,1.22,1.82-1.79,10.66-4.31,15.52h-.01Z"/>
        <path class="cls-2" d="M295.9,188.3c.41,.64-.18,1.6-.96,1.24-1.42-.65-2.85-1.21-4.32-1.7-.12,1.35-.25,2.71-.37,4.06-.06,.67-1.08,.98-1.45,.38-1.26-2.01-2.31-4.11-3.03-6.38-.79-2.47-2.5-8.99-1.15-9.09,2.19-.15,8.35,6.87,11.3,11.48h-.02Z"/>
        <path class="cls-2" d="M302.39,169.4c.75-.03,1.3,.95,.59,1.45-1.27,.9-2.47,1.87-3.63,2.9,1.11,.78,2.22,1.57,3.33,2.35,.55,.39,.31,1.42-.4,1.45-2.37,.08-4.71-.05-7.04-.56-2.53-.55-9.04-2.32-8.45-3.54,.96-1.97,10.12-3.8,15.59-4.06h.01Z"/>
        <path class="cls-2" d="M289.25,154.34c.35-.67,1.47-.65,1.55,.21,.15,1.55,.38,3.07,.7,4.59,1.23-.57,2.47-1.14,3.7-1.71,.61-.28,1.39,.44,1.05,1.07-1.11,2.1-2.4,4.06-4,5.82-1.74,1.92-6.53,6.68-7.28,5.56-1.23-1.82,1.76-10.67,4.27-15.53h.01Z"/>
        <path class="cls-2" d="M269.64,158.21c-.41-.64,.17-1.6,.96-1.24,1.42,.65,2.85,1.2,4.33,1.68,.12-1.35,.24-2.71,.36-4.06,.06-.67,1.08-.98,1.45-.38,1.26,2.01,2.32,4.11,3.05,6.37,.79,2.47,2.53,8.99,1.18,9.08-2.19,.16-8.37-6.85-11.33-11.45h0Z"/>
      </g>
      <path class="cls-3" d="M281.15,173.54c-.25-2.08,2.98-2.47,3.23-.39s-2.98,2.47-3.23,.39Z"/>
    </g>
    <g>
      <g>
        <path class="cls-2" d="M299.53,120.58c-.5,.13-1.01-.46-.6-.9,.73-.78,1.41-1.6,2.05-2.46-.86-.38-1.71-.75-2.57-1.13-.42-.19-.4-.92,.07-1.03,1.59-.38,3.19-.61,4.82-.59,1.78,.02,6.42,.32,6.18,1.22-.38,1.46-6.3,3.96-9.95,4.88h0Z"/>
        <path class="cls-2" d="M310.47,128.92c-.14,.5-.9,.64-1.08,.07-.31-1.03-.68-2.02-1.11-3-.75,.56-1.51,1.11-2.26,1.67-.37,.27-1-.11-.86-.58,.46-1.57,1.06-3.07,1.9-4.47,.91-1.53,3.48-5.4,4.14-4.75,1.08,1.06,.28,7.43-.74,11.06h0Z"/>
        <path class="cls-2" d="M323.15,123.61c.36,.37,.1,1.1-.48,.97-1.05-.24-2.09-.42-3.15-.54,.11,.93,.21,1.86,.32,2.79,.05,.46-.59,.81-.93,.46-1.13-1.18-2.13-2.45-2.93-3.88-.87-1.55-2.94-5.71-2.05-5.96,1.45-.41,6.58,3.46,9.22,6.16h0Z"/>
        <path class="cls-2" d="M324.88,109.97c.5-.13,1.01,.46,.6,.9-.73,.79-1.41,1.6-2.04,2.46,.86,.37,1.72,.75,2.57,1.12,.42,.18,.41,.92-.07,1.03-1.59,.39-3.18,.62-4.82,.61-1.78-.02-6.42-.3-6.19-1.2,.37-1.46,6.29-3.98,9.94-4.91h.01Z"/>
        <path class="cls-2" d="M313.92,101.66c.14-.5,.9-.64,1.08-.08,.32,1.03,.69,2.02,1.12,3,.75-.56,1.5-1.12,2.26-1.67,.37-.28,1,.11,.86,.57-.46,1.57-1.05,3.07-1.88,4.48-.91,1.54-3.46,5.41-4.13,4.76-1.08-1.05-.31-7.43,.71-11.06h-.02Z"/>
        <path class="cls-2" d="M301.25,107.01c-.36-.37-.11-1.1,.47-.97,1.05,.24,2.09,.41,3.15,.53-.11-.93-.22-1.86-.32-2.79-.05-.46,.59-.81,.93-.46,1.13,1.18,2.14,2.44,2.94,3.87,.88,1.55,2.96,5.7,2.06,5.96-1.45,.41-6.59-3.44-9.23-6.13h0Z"/>
      </g>
      <path class="cls-3" d="M311.15,115.72c-.46-1.36,1.66-2.08,2.12-.71,.46,1.36-1.66,2.08-2.12,.71Z"/>
    </g>
    <g>
      <g>
        <path class="cls-2" d="M239.99,122.31c-.51-.08-.75-.82-.2-1.06,.98-.44,1.92-.92,2.84-1.46l-1.93-2.04c-.32-.34,0-1,.47-.92,1.61,.27,3.17,.68,4.67,1.33,1.63,.72,5.79,2.79,5.22,3.53-.92,1.2-7.34,1.19-11.07,.62h0Z"/>
        <path class="cls-2" d="M246.8,134.25c-.32,.41-1.08,.24-1.02-.35,.11-1.07,.16-2.13,.15-3.19-.91,.22-1.82,.44-2.73,.65-.45,.11-.87-.49-.57-.86,1.04-1.26,2.17-2.41,3.49-3.38,1.44-1.06,5.31-3.62,5.67-2.76,.58,1.39-2.63,6.96-4.99,9.9h0Z"/>
        <path class="cls-2" d="M260.56,134.3c.19,.48-.33,1.06-.82,.71-.87-.63-1.76-1.2-2.69-1.72-.27,.9-.53,1.8-.8,2.69-.13,.44-.86,.51-1.03,.06-.58-1.53-1.01-3.08-1.19-4.71-.2-1.77-.49-6.41,.44-6.29,1.5,.19,4.71,5.76,6.09,9.26Z"/>
        <path class="cls-2" d="M267.47,122.41c.51,.08,.75,.82,.21,1.06-.98,.44-1.92,.93-2.84,1.47,.65,.68,1.29,1.36,1.94,2.03,.32,.33,.02,1-.46,.92-1.61-.26-3.17-.67-4.68-1.32-1.63-.71-5.79-2.78-5.23-3.52,.91-1.2,7.34-1.21,11.07-.65h-.01Z"/>
        <path class="cls-2" d="M260.61,110.49c.32-.41,1.08-.24,1.02,.35-.11,1.07-.15,2.13-.14,3.19l2.73-.66c.45-.11,.88,.49,.57,.86-1.03,1.27-2.16,2.42-3.48,3.39-1.43,1.06-5.3,3.63-5.66,2.78-.58-1.39,2.61-6.96,4.96-9.91h0Z"/>
        <path class="cls-2" d="M246.86,110.48c-.19-.48,.33-1.06,.81-.71,.87,.63,1.77,1.19,2.7,1.72,.26-.9,.53-1.8,.79-2.69,.13-.44,.86-.52,1.03-.06,.58,1.53,1.01,3.08,1.2,4.71,.2,1.77,.5,6.41-.42,6.29-1.5-.19-4.73-5.74-6.11-9.25h0Z"/>
      </g>
      <path class="cls-3" d="M252.58,122.36c.11-1.44,2.34-1.27,2.23,.17-.11,1.44-2.34,1.27-2.23-.17Z"/>
    </g>
  </g>
  <g>
    <path class="cls-4" d="M269.79,42.83c-8.99-3.58-18.05-.26-26.38,3.48-3.97,1.78-7.79,3.9-12,5.12-6.3,1.82-12.96,2.37-19.14-.11-5.79-2.32-10.66-6.44-15.2-10.62"/>
    <path class="cls-4" d="M246.33,14.04c-12.53,8.06-16.39,33.04-33.9,32.98-5.56-.02-11.52-2.23-15.36-6.32"/>
    <path class="cls-4" d="M246.33,72.96c-1.34-3.94-5.01-6.52-8.59-8.34-7.37-3.73-15.6-5.61-23.05-9.26-6.96-3.41-13.41-8.04-17.62-14.67"/>
    <g>
      <g>
        <path class="cls-2" d="M269.12,23.29c.06-.75,1.11-1.17,1.51-.41,.74,1.37,1.55,2.68,2.43,3.96,.91-1.01,1.83-2.01,2.74-3.02,.45-.5,1.45-.13,1.39,.57-.21,2.36-.63,4.67-1.42,6.92-.86,2.44-3.42,8.69-4.55,7.95-1.84-1.2-2.53-10.51-2.11-15.97h0Z"/>
        <path class="cls-2" d="M252.56,34.48c-.62-.43-.46-1.54,.4-1.52,1.56,.05,3.1,0,4.64-.13-.42-1.3-.83-2.59-1.25-3.89-.21-.64,.61-1.32,1.19-.92,1.94,1.36,3.73,2.88,5.28,4.69,1.69,1.96,5.82,7.3,4.62,7.91-1.96,.99-10.37-3.06-14.89-6.15h0Z"/>
        <path class="cls-2" d="M253.99,54.41c-.68,.33-1.57-.37-1.11-1.1,.82-1.33,1.55-2.69,2.2-4.09-1.33-.29-2.66-.57-3.99-.86-.66-.14-.84-1.19-.2-1.49,2.15-1,4.36-1.79,6.7-2.24,2.54-.48,9.23-1.4,9.16-.05-.12,2.19-7.82,7.46-12.76,9.83Z"/>
        <path class="cls-2" d="M271.97,63.12c-.06,.75-1.1,1.17-1.51,.41-.74-1.37-1.56-2.68-2.44-3.95l-2.74,3.03c-.45,.5-1.45,.13-1.39-.57,.2-2.36,.62-4.67,1.4-6.92,.85-2.45,3.39-8.7,4.53-7.96,1.84,1.19,2.56,10.5,2.15,15.96h0Z"/>
        <path class="cls-2" d="M288.5,51.89c.62,.42,.47,1.54-.4,1.52-1.56-.04-3.1,0-4.64,.15,.42,1.29,.84,2.59,1.26,3.88,.21,.64-.61,1.32-1.19,.92-1.95-1.36-3.74-2.87-5.3-4.67-1.69-1.96-5.84-7.28-4.64-7.9,1.95-1,10.38,3.03,14.91,6.1Z"/>
        <path class="cls-2" d="M287.01,31.96c.68-.33,1.57,.36,1.12,1.1-.81,1.33-1.54,2.69-2.19,4.1,1.33,.28,2.66,.57,3.99,.85,.66,.14,.84,1.19,.2,1.49-2.15,1.01-4.35,1.81-6.69,2.26-2.54,.49-9.23,1.43-9.16,.08,.11-2.19,7.8-7.48,12.73-9.87h0Z"/>
      </g>
      <path class="cls-3" d="M270.42,41.54c2.09,0,2.1,3.25,0,3.25s-2.1-3.25,0-3.25Z"/>
    </g>
    <g>
      <g>
        <path class="cls-2" d="M191.01,16.9c.06-.75,1.11-1.17,1.51-.41,.74,1.37,1.55,2.68,2.43,3.96,.91-1.01,1.83-2.01,2.74-3.02,.45-.5,1.45-.13,1.39,.57-.21,2.36-.63,4.67-1.42,6.92-.86,2.44-3.42,8.69-4.55,7.95-1.84-1.2-2.53-10.51-2.11-15.97h.01Z"/>
        <path class="cls-2" d="M174.46,28.08c-.62-.43-.46-1.54,.4-1.52,1.56,.05,3.1,0,4.64-.13-.42-1.3-.83-2.59-1.25-3.89-.2-.64,.61-1.32,1.19-.92,1.94,1.36,3.73,2.88,5.28,4.69,1.69,1.96,5.82,7.3,4.62,7.91-1.96,.99-10.37-3.06-14.89-6.15h.01Z"/>
        <path class="cls-2" d="M175.88,48.01c-.68,.33-1.57-.37-1.11-1.1,.82-1.33,1.55-2.69,2.2-4.09-1.33-.29-2.66-.57-3.99-.86-.66-.14-.84-1.19-.2-1.49,2.15-1,4.36-1.79,6.7-2.24,2.54-.48,9.23-1.4,9.16-.05-.12,2.19-7.82,7.46-12.76,9.83Z"/>
        <path class="cls-2" d="M193.86,56.73c-.06,.75-1.1,1.17-1.51,.41-.74-1.37-1.56-2.68-2.44-3.95l-2.74,3.03c-.45,.5-1.45,.13-1.39-.57,.2-2.36,.62-4.67,1.4-6.92,.85-2.45,3.39-8.7,4.53-7.96,1.84,1.19,2.56,10.5,2.15,15.96h0Z"/>
        <path class="cls-2" d="M210.39,45.49c.62,.42,.47,1.54-.4,1.52-1.56-.04-3.1,0-4.64,.15,.42,1.29,.84,2.59,1.26,3.88,.21,.64-.61,1.32-1.19,.92-1.95-1.36-3.74-2.87-5.3-4.67-1.69-1.96-5.84-7.28-4.64-7.9,1.95-1,10.38,3.03,14.91,6.1Z"/>
        <path class="cls-2" d="M208.91,25.57c.68-.33,1.57,.36,1.12,1.1-.81,1.33-1.54,2.69-2.19,4.1,1.33,.28,2.66,.57,3.99,.85,.66,.14,.84,1.19,.2,1.49-2.15,1.01-4.35,1.81-6.69,2.26-2.54,.49-9.23,1.43-9.16,.08,.11-2.19,7.8-7.48,12.73-9.87h0Z"/>
      </g>
      <path class="cls-3" d="M192.31,35.15c2.09,0,2.1,3.25,0,3.25s-2.1-3.25,0-3.25Z"/>
    </g>
    <g>
      <g>
        <path class="cls-2" d="M242.67,59.76c-.07-.52,.58-.94,.96-.49,.69,.82,1.42,1.59,2.19,2.33l1.43-2.42c.24-.4,.96-.29,1.02,.19,.19,1.62,.22,3.24,0,4.86-.24,1.77-1.09,6.33-1.96,5.99-1.41-.55-3.17-6.73-3.65-10.47h0Z"/>
        <path class="cls-2" d="M233.08,69.61c-.48-.2-.53-.97,.06-1.08,1.06-.19,2.09-.43,3.11-.74-.46-.81-.92-1.63-1.38-2.44-.23-.4,.23-.98,.67-.78,1.5,.65,2.92,1.42,4.21,2.42,1.41,1.09,4.94,4.1,4.22,4.69-1.18,.94-7.41-.61-10.89-2.06h0Z"/>
        <path class="cls-2" d="M236.82,82.85c-.41,.32-1.11-.03-.91-.59,.37-1.01,.67-2.03,.91-3.06-.94,0-1.87-.01-2.81-.02-.46,0-.73-.68-.34-.98,1.31-.98,2.69-1.82,4.2-2.44,1.65-.68,6.02-2.24,6.16-1.31,.23,1.49-4.23,6.12-7.22,8.41h0Z"/>
        <path class="cls-2" d="M250.16,86.21c.07,.52-.58,.94-.96,.49-.69-.82-1.42-1.59-2.2-2.32-.47,.81-.95,1.61-1.42,2.42-.23,.4-.96,.29-1.02-.19-.19-1.62-.23-3.24-.02-4.86,.23-1.77,1.07-6.34,1.94-6,1.41,.55,3.19,6.72,3.68,10.46h0Z"/>
        <path class="cls-2" d="M259.73,76.33c.48,.2,.53,.97-.05,1.08-1.06,.19-2.09,.44-3.11,.75,.46,.81,.93,1.63,1.39,2.44,.23,.4-.23,.98-.67,.79-1.5-.64-2.92-1.41-4.22-2.41-1.42-1.08-4.96-4.09-4.23-4.67,1.18-.95,7.42,.59,10.9,2.03h-.01Z"/>
        <path class="cls-2" d="M255.94,63.11c.41-.32,1.11,.03,.91,.59-.36,1.01-.66,2.03-.9,3.07h2.81c.46,.02,.73,.7,.34,.99-1.31,.98-2.68,1.83-4.19,2.46-1.65,.69-6.02,2.25-6.16,1.33-.23-1.49,4.21-6.13,7.2-8.43h0Z"/>
      </g>
      <path class="cls-3" d="M246.1,71.88c1.41-.29,1.87,1.9,.45,2.19-1.41,.29-1.87-1.9-.45-2.19Z"/>
    </g>
    <g>
      <g>
        <path class="cls-2" d="M248.12,.44c.14-.5,.9-.64,1.08-.07,.31,1.03,.69,2.02,1.11,3,.75-.56,1.5-1.11,2.26-1.67,.37-.28,1,.11,.86,.57-.46,1.57-1.05,3.07-1.89,4.48-.91,1.53-3.47,5.41-4.14,4.76-1.08-1.06-.3-7.43,.72-11.06h0Z"/>
        <path class="cls-2" d="M235.45,5.77c-.36-.37-.11-1.1,.47-.97,1.05,.24,2.09,.41,3.15,.53-.11-.93-.21-1.86-.32-2.79-.05-.46,.59-.81,.93-.46,1.13,1.18,2.13,2.45,2.94,3.87,.88,1.55,2.95,5.71,2.06,5.96-1.45,.41-6.59-3.45-9.23-6.14h0Z"/>
        <path class="cls-2" d="M233.74,19.42c-.5,.13-1.01-.46-.6-.89,.73-.79,1.4-1.61,2.03-2.47l-2.58-1.11c-.42-.18-.41-.92,.07-1.03,1.59-.39,3.18-.63,4.82-.61,1.78,.01,6.42,.29,6.19,1.19-.37,1.46-6.28,3.99-9.93,4.93h0Z"/>
        <path class="cls-2" d="M244.71,27.71c-.14,.5-.9,.64-1.08,.08-.32-1.03-.69-2.02-1.12-2.99-.75,.56-1.5,1.12-2.25,1.68-.37,.28-1-.1-.86-.57,.45-1.57,1.05-3.07,1.87-4.48,.9-1.54,3.45-5.42,4.12-4.77,1.08,1.05,.32,7.43-.69,11.06h.01Z"/>
        <path class="cls-2" d="M257.37,22.34c.36,.37,.11,1.1-.47,.97-1.05-.24-2.09-.41-3.15-.52,.11,.93,.22,1.86,.33,2.79,.05,.46-.59,.81-.92,.46-1.13-1.18-2.14-2.44-2.95-3.86-.88-1.55-2.97-5.7-2.07-5.95,1.45-.41,6.6,3.43,9.24,6.12h-.01Z"/>
        <path class="cls-2" d="M259.04,8.69c.5-.13,1.01,.46,.61,.89-.73,.79-1.4,1.61-2.03,2.47,.86,.37,1.72,.74,2.58,1.11,.42,.18,.41,.91-.06,1.03-1.58,.39-3.18,.64-4.82,.63-1.78,0-6.42-.27-6.19-1.17,.37-1.46,6.27-4,9.91-4.96h0Z"/>
      </g>
      <path class="cls-3" d="M246.55,12.93c1.41,.28,.98,2.47-.44,2.19-1.41-.28-.98-2.47,.44-2.19Z"/>
    </g>
  </g>
  <g>
    <path class="cls-4" d="M269.79,228.38c-8.99,3.58-18.05,.26-26.38-3.48-3.97-1.79-7.79-3.9-12-5.12-6.3-1.82-12.96-2.37-19.14,.11-5.79,2.32-10.66,6.44-15.2,10.62"/>
    <path class="cls-4" d="M246.33,257.17c-12.53-8.06-16.39-33.04-33.9-32.98-5.56,.02-11.52,2.23-15.36,6.32"/>
    <path class="cls-4" d="M246.33,198.25c-1.34,3.94-5.01,6.52-8.59,8.34-7.37,3.73-15.6,5.61-23.05,9.26-6.96,3.41-13.41,8.04-17.62,14.67"/>
    <g>
      <g>
        <path class="cls-2" d="M269.12,247.92c.06,.75,1.11,1.17,1.51,.41,.74-1.37,1.55-2.68,2.43-3.96,.91,1.01,1.83,2.01,2.74,3.02,.45,.5,1.45,.13,1.39-.57-.21-2.36-.63-4.67-1.42-6.92-.86-2.44-3.42-8.69-4.55-7.95-1.84,1.2-2.53,10.51-2.11,15.97h0Z"/>
        <path class="cls-2" d="M252.56,236.74c-.62,.43-.46,1.54,.4,1.52,1.56-.05,3.1,0,4.64,.13-.42,1.3-.83,2.59-1.25,3.89-.21,.64,.61,1.32,1.19,.92,1.94-1.36,3.73-2.88,5.28-4.69,1.69-1.96,5.82-7.3,4.62-7.91-1.96-.99-10.37,3.06-14.89,6.15h0Z"/>
        <path class="cls-2" d="M253.99,216.8c-.68-.33-1.57,.37-1.11,1.1,.82,1.33,1.55,2.68,2.2,4.09-1.33,.29-2.66,.57-3.99,.86-.66,.14-.84,1.19-.2,1.49,2.15,1,4.36,1.79,6.7,2.24,2.54,.48,9.23,1.4,9.16,.05-.12-2.19-7.82-7.46-12.76-9.83h0Z"/>
        <path class="cls-2" d="M271.97,208.09c-.06-.75-1.1-1.17-1.51-.41-.74,1.37-1.56,2.68-2.44,3.95l-2.74-3.03c-.45-.5-1.45-.13-1.39,.57,.2,2.36,.62,4.67,1.4,6.92,.85,2.45,3.39,8.7,4.53,7.96,1.84-1.19,2.56-10.5,2.15-15.96h0Z"/>
        <path class="cls-2" d="M288.5,219.32c.62-.42,.47-1.54-.4-1.52-1.56,.04-3.1,0-4.64-.15,.42-1.29,.84-2.59,1.26-3.88,.21-.64-.61-1.32-1.19-.92-1.95,1.36-3.74,2.87-5.3,4.67-1.69,1.96-5.84,7.28-4.64,7.9,1.95,1,10.38-3.03,14.91-6.1h0Z"/>
        <path class="cls-2" d="M287.01,239.25c.68,.33,1.57-.36,1.12-1.1-.81-1.33-1.54-2.69-2.19-4.1,1.33-.28,2.66-.57,3.99-.85,.66-.14,.84-1.19,.2-1.49-2.15-1.01-4.35-1.81-6.69-2.26-2.54-.49-9.23-1.43-9.16-.08,.11,2.19,7.8,7.48,12.73,9.87h0Z"/>
      </g>
      <path class="cls-3" d="M270.42,229.67c2.09,0,2.1-3.25,0-3.25s-2.1,3.25,0,3.25Z"/>
    </g>
    <g>
      <g>
        <path class="cls-2" d="M191.01,254.32c.06,.75,1.11,1.17,1.51,.41,.74-1.37,1.55-2.68,2.43-3.96,.91,1.01,1.83,2.01,2.74,3.02,.45,.5,1.45,.13,1.39-.57-.21-2.36-.63-4.67-1.42-6.92-.86-2.44-3.42-8.69-4.55-7.95-1.84,1.2-2.53,10.51-2.11,15.97h.01Z"/>
        <path class="cls-2" d="M174.46,243.13c-.62,.43-.46,1.54,.4,1.52,1.56-.05,3.1,0,4.64,.13-.42,1.3-.83,2.59-1.25,3.89-.2,.64,.61,1.32,1.19,.92,1.94-1.36,3.73-2.88,5.28-4.69,1.69-1.96,5.82-7.3,4.62-7.91-1.96-.99-10.37,3.06-14.89,6.15h.01Z"/>
        <path class="cls-2" d="M175.88,223.2c-.68-.33-1.57,.37-1.11,1.1,.82,1.33,1.55,2.68,2.2,4.09-1.33,.29-2.66,.57-3.99,.86-.66,.14-.84,1.19-.2,1.49,2.15,1,4.36,1.79,6.7,2.24,2.54,.48,9.23,1.4,9.16,.05-.12-2.19-7.82-7.46-12.76-9.83h0Z"/>
        <path class="cls-2" d="M193.86,214.49c-.06-.75-1.1-1.17-1.51-.41-.74,1.37-1.56,2.68-2.44,3.95l-2.74-3.03c-.45-.5-1.45-.13-1.39,.57,.2,2.36,.62,4.67,1.4,6.92,.85,2.45,3.39,8.7,4.53,7.96,1.84-1.19,2.56-10.5,2.15-15.96h0Z"/>
        <path class="cls-2" d="M210.39,225.72c.62-.42,.47-1.54-.4-1.52-1.56,.04-3.1,0-4.64-.15,.42-1.29,.84-2.59,1.26-3.88,.21-.64-.61-1.32-1.19-.92-1.95,1.36-3.74,2.87-5.3,4.67-1.69,1.96-5.84,7.28-4.64,7.9,1.95,1,10.38-3.03,14.91-6.1h0Z"/>
        <path class="cls-2" d="M208.91,245.65c.68,.33,1.57-.36,1.12-1.1-.81-1.33-1.54-2.69-2.19-4.1,1.33-.28,2.66-.57,3.99-.85,.66-.14,.84-1.19,.2-1.49-2.15-1.01-4.35-1.81-6.69-2.26-2.54-.49-9.23-1.43-9.16-.08,.11,2.19,7.8,7.48,12.73,9.87h0Z"/>
      </g>
      <path class="cls-3" d="M192.31,236.07c2.09,0,2.1-3.25,0-3.25s-2.1,3.25,0,3.25Z"/>
    </g>
    <g>
      <g>
        <path class="cls-2" d="M242.67,211.45c-.07,.52,.58,.94,.96,.49,.69-.82,1.42-1.59,2.19-2.33l1.43,2.42c.24,.4,.96,.29,1.02-.19,.19-1.62,.22-3.24,0-4.86-.24-1.77-1.09-6.33-1.96-5.99-1.41,.55-3.17,6.73-3.65,10.47h0Z"/>
        <path class="cls-2" d="M233.08,201.6c-.48,.2-.53,.97,.06,1.08,1.06,.19,2.09,.43,3.11,.74-.46,.81-.92,1.63-1.38,2.44-.23,.4,.23,.98,.67,.78,1.5-.65,2.92-1.42,4.21-2.42,1.41-1.09,4.94-4.1,4.22-4.69-1.18-.94-7.41,.61-10.89,2.06h0Z"/>
        <path class="cls-2" d="M236.82,188.37c-.41-.32-1.11,.03-.91,.59,.37,1.01,.67,2.03,.91,3.06-.94,0-1.87,0-2.81,.02-.46,0-.73,.68-.34,.98,1.31,.98,2.69,1.82,4.2,2.44,1.65,.68,6.02,2.24,6.16,1.31,.23-1.49-4.23-6.12-7.22-8.41h0Z"/>
        <path class="cls-2" d="M250.16,185.01c.07-.52-.58-.94-.96-.49-.69,.82-1.42,1.59-2.2,2.32-.47-.81-.95-1.61-1.42-2.42-.23-.4-.96-.29-1.02,.19-.19,1.62-.23,3.24-.02,4.86,.23,1.77,1.07,6.34,1.94,6,1.41-.55,3.19-6.72,3.68-10.46h0Z"/>
        <path class="cls-2" d="M259.73,194.89c.48-.2,.53-.97-.05-1.08-1.06-.19-2.09-.44-3.11-.75,.46-.81,.93-1.63,1.39-2.44,.23-.4-.23-.98-.67-.79-1.5,.64-2.92,1.41-4.22,2.41-1.42,1.08-4.96,4.09-4.23,4.67,1.18,.95,7.42-.59,10.9-2.03h-.01Z"/>
        <path class="cls-2" d="M255.94,208.11c.41,.32,1.11-.03,.91-.59-.36-1.01-.66-2.03-.9-3.07h2.81c.46-.02,.73-.7,.34-.99-1.31-.98-2.68-1.83-4.19-2.46-1.65-.69-6.02-2.25-6.16-1.33-.23,1.49,4.21,6.13,7.2,8.43h0Z"/>
      </g>
      <path class="cls-3" d="M246.1,199.33c1.41,.29,1.87-1.9,.45-2.19-1.41-.29-1.87,1.9-.45,2.19Z"/>
    </g>
    <g>
      <g>
        <path class="cls-2" d="M248.12,270.77c.14,.5,.9,.64,1.08,.07,.31-1.03,.69-2.02,1.11-3,.75,.56,1.5,1.11,2.26,1.67,.37,.27,1-.11,.86-.57-.46-1.57-1.05-3.07-1.89-4.48-.91-1.53-3.47-5.41-4.14-4.76-1.08,1.06-.3,7.43,.72,11.06h0Z"/>
        <path class="cls-2" d="M235.45,265.44c-.36,.37-.11,1.1,.47,.97,1.05-.24,2.09-.41,3.15-.53-.11,.93-.21,1.86-.32,2.79-.05,.46,.59,.81,.93,.46,1.13-1.18,2.13-2.45,2.94-3.87,.88-1.55,2.95-5.71,2.06-5.96-1.45-.41-6.59,3.45-9.23,6.14h0Z"/>
        <path class="cls-2" d="M233.74,251.79c-.5-.13-1.01,.46-.6,.89,.73,.79,1.4,1.61,2.03,2.47-.86,.37-1.72,.74-2.58,1.11-.42,.18-.41,.92,.07,1.03,1.59,.39,3.18,.63,4.82,.61,1.78-.01,6.42-.29,6.19-1.19-.37-1.46-6.28-3.99-9.93-4.93h0Z"/>
        <path class="cls-2" d="M244.71,243.5c-.14-.5-.9-.64-1.08-.08-.32,1.03-.69,2.02-1.12,2.99l-2.25-1.68c-.37-.28-1,.1-.86,.57,.45,1.57,1.05,3.07,1.87,4.48,.9,1.54,3.45,5.42,4.12,4.77,1.08-1.05,.32-7.43-.69-11.06h.01Z"/>
        <path class="cls-2" d="M257.37,248.87c.36-.37,.11-1.1-.47-.97-1.05,.24-2.09,.41-3.15,.52,.11-.93,.22-1.86,.33-2.79,.05-.46-.59-.81-.92-.46-1.13,1.18-2.14,2.44-2.95,3.86-.88,1.55-2.97,5.7-2.07,5.95,1.45,.41,6.6-3.43,9.24-6.12h-.01Z"/>
        <path class="cls-2" d="M259.04,262.52c.5,.13,1.01-.46,.61-.89-.73-.79-1.4-1.61-2.03-2.47,.86-.37,1.72-.74,2.58-1.11,.42-.18,.41-.91-.06-1.03-1.58-.39-3.18-.64-4.82-.63-1.78,0-6.42,.27-6.19,1.17,.37,1.46,6.27,4,9.91,4.96h0Z"/>
      </g>
      <path class="cls-3" d="M246.55,258.28c1.41-.28,.98-2.48-.44-2.19-1.41,.28-.98,2.48,.44,2.19Z"/>
    </g>
  </g>
  <g>
    <path class="cls-4" d="M56.04,228.38c8.99,3.58,18.05,.26,26.38-3.48,3.97-1.79,7.79-3.9,12-5.12,6.3-1.82,12.96-2.37,19.14,.11,5.79,2.32,10.66,6.44,15.2,10.62"/>
    <path class="cls-4" d="M79.5,257.17c12.53-8.06,16.39-33.04,33.9-32.98,5.56,.02,11.52,2.23,15.36,6.32"/>
    <path class="cls-4" d="M79.5,198.25c1.34,3.94,5.01,6.52,8.59,8.34,7.37,3.73,15.6,5.61,23.05,9.26,6.96,3.41,13.41,8.04,17.62,14.67"/>
    <g>
      <g>
        <path class="cls-2" d="M56.71,247.92c-.06,.75-1.11,1.17-1.51,.41-.74-1.37-1.55-2.68-2.43-3.96-.91,1.01-1.83,2.01-2.74,3.02-.45,.5-1.45,.13-1.39-.57,.21-2.36,.63-4.67,1.42-6.92,.86-2.44,3.42-8.69,4.55-7.95,1.84,1.2,2.53,10.51,2.11,15.97h0Z"/>
        <path class="cls-2" d="M73.27,236.74c.62,.43,.46,1.54-.4,1.52-1.56-.05-3.1,0-4.64,.13,.42,1.3,.83,2.59,1.25,3.89,.21,.64-.61,1.32-1.19,.92-1.94-1.36-3.73-2.88-5.28-4.69-1.69-1.96-5.82-7.3-4.62-7.91,1.96-.99,10.37,3.06,14.89,6.15h-.01Z"/>
        <path class="cls-2" d="M71.85,216.8c.68-.33,1.57,.37,1.11,1.1-.82,1.33-1.55,2.68-2.2,4.09,1.33,.29,2.66,.57,3.99,.86,.66,.14,.84,1.19,.2,1.49-2.15,1-4.36,1.79-6.7,2.24-2.54,.48-9.23,1.4-9.16,.05,.12-2.19,7.82-7.46,12.76-9.83h0Z"/>
        <path class="cls-2" d="M53.86,208.09c.06-.75,1.1-1.17,1.51-.41,.74,1.37,1.56,2.68,2.44,3.95,.91-1.01,1.82-2.02,2.74-3.03,.45-.5,1.45-.13,1.39,.57-.2,2.36-.62,4.67-1.4,6.92-.85,2.45-3.39,8.7-4.53,7.96-1.84-1.19-2.56-10.5-2.15-15.96Z"/>
        <path class="cls-2" d="M37.33,219.32c-.62-.42-.47-1.54,.4-1.52,1.56,.04,3.1,0,4.64-.15-.42-1.29-.84-2.59-1.26-3.88-.21-.64,.61-1.32,1.19-.92,1.95,1.36,3.74,2.87,5.3,4.67,1.69,1.96,5.84,7.28,4.64,7.9-1.95,1-10.38-3.03-14.91-6.1h0Z"/>
        <path class="cls-2" d="M38.82,239.25c-.68,.33-1.57-.36-1.12-1.1,.81-1.33,1.54-2.69,2.19-4.1-1.33-.28-2.66-.57-3.99-.85-.66-.14-.84-1.19-.2-1.49,2.15-1.01,4.35-1.81,6.69-2.26,2.54-.49,9.23-1.43,9.16-.08-.11,2.19-7.8,7.48-12.73,9.87h0Z"/>
      </g>
      <path class="cls-3" d="M55.42,229.67c-2.09,0-2.1-3.25,0-3.25s2.1,3.25,0,3.25Z"/>
    </g>
    <g>
      <g>
        <path class="cls-2" d="M134.82,254.32c-.06,.75-1.11,1.17-1.51,.41-.74-1.37-1.55-2.68-2.43-3.96-.91,1.01-1.83,2.01-2.74,3.02-.45,.5-1.45,.13-1.39-.57,.21-2.36,.63-4.67,1.42-6.92,.86-2.44,3.42-8.69,4.55-7.95,1.84,1.2,2.53,10.51,2.11,15.97h-.01Z"/>
        <path class="cls-2" d="M151.38,243.13c.62,.43,.46,1.54-.4,1.52-1.56-.05-3.1,0-4.64,.13,.42,1.3,.83,2.59,1.25,3.89,.21,.64-.61,1.32-1.19,.92-1.94-1.36-3.73-2.88-5.28-4.69-1.69-1.96-5.82-7.3-4.62-7.91,1.96-.99,10.37,3.06,14.89,6.15h-.01Z"/>
        <path class="cls-2" d="M149.95,223.2c.68-.33,1.57,.37,1.11,1.1-.82,1.33-1.55,2.68-2.2,4.09,1.33,.29,2.66,.57,3.99,.86,.66,.14,.84,1.19,.2,1.49-2.15,1-4.36,1.79-6.7,2.24-2.54,.48-9.23,1.4-9.16,.05,.12-2.19,7.82-7.46,12.76-9.83h0Z"/>
        <path class="cls-2" d="M131.97,214.49c.06-.75,1.1-1.17,1.51-.41,.74,1.37,1.56,2.68,2.44,3.95,.91-1.01,1.82-2.02,2.74-3.03,.45-.5,1.45-.13,1.39,.57-.2,2.36-.62,4.67-1.4,6.92-.85,2.45-3.39,8.7-4.53,7.96-1.84-1.19-2.56-10.5-2.15-15.96h0Z"/>
        <path class="cls-2" d="M115.44,225.72c-.62-.42-.47-1.54,.4-1.52,1.56,.04,3.1,0,4.64-.15-.42-1.29-.84-2.59-1.26-3.88-.21-.64,.61-1.32,1.19-.92,1.95,1.36,3.74,2.87,5.3,4.67,1.69,1.96,5.84,7.28,4.64,7.9-1.95,1-10.38-3.03-14.91-6.1h0Z"/>
        <path class="cls-2" d="M116.92,245.65c-.68,.33-1.57-.36-1.12-1.1,.81-1.33,1.54-2.69,2.19-4.1-1.33-.28-2.66-.57-3.99-.85-.66-.14-.84-1.19-.2-1.49,2.15-1.01,4.35-1.81,6.69-2.26,2.54-.49,9.23-1.43,9.16-.08-.11,2.19-7.8,7.48-12.73,9.87h0Z"/>
      </g>
      <path class="cls-3" d="M133.52,236.07c-2.09,0-2.1-3.25,0-3.25s2.1,3.25,0,3.25Z"/>
    </g>
    <g>
      <g>
        <path class="cls-2" d="M83.16,211.45c.07,.52-.58,.94-.96,.49-.69-.82-1.42-1.59-2.19-2.33l-1.43,2.42c-.24,.4-.96,.29-1.02-.19-.19-1.62-.22-3.24,0-4.86,.24-1.77,1.09-6.33,1.96-5.99,1.41,.55,3.17,6.73,3.65,10.47h-.01Z"/>
        <path class="cls-2" d="M92.75,201.6c.48,.2,.53,.97-.06,1.08-1.06,.19-2.09,.43-3.11,.74,.46,.81,.92,1.63,1.38,2.44,.23,.4-.23,.98-.67,.78-1.5-.65-2.92-1.42-4.21-2.42-1.41-1.09-4.94-4.1-4.22-4.69,1.18-.94,7.41,.61,10.89,2.06h0Z"/>
        <path class="cls-2" d="M89.01,188.37c.41-.32,1.11,.03,.91,.59-.37,1.01-.67,2.03-.91,3.06,.94,0,1.87,0,2.81,.02,.46,0,.73,.68,.34,.98-1.31,.98-2.69,1.82-4.2,2.44-1.65,.68-6.02,2.24-6.16,1.31-.23-1.49,4.23-6.12,7.22-8.41h-.01Z"/>
        <path class="cls-2" d="M75.67,185.01c-.07-.52,.58-.94,.96-.49,.69,.82,1.42,1.59,2.2,2.32,.47-.81,.95-1.61,1.42-2.42,.23-.4,.96-.29,1.02,.19,.19,1.62,.23,3.24,.02,4.86-.23,1.77-1.07,6.34-1.94,6-1.41-.55-3.19-6.72-3.68-10.46h0Z"/>
        <path class="cls-2" d="M66.11,194.89c-.48-.2-.53-.97,.05-1.08,1.06-.19,2.09-.44,3.11-.75-.46-.81-.93-1.63-1.39-2.44-.23-.4,.23-.98,.67-.79,1.5,.64,2.92,1.41,4.22,2.41,1.42,1.08,4.96,4.09,4.23,4.67-1.18,.95-7.42-.59-10.9-2.03h0Z"/>
        <path class="cls-2" d="M69.89,208.11c-.41,.32-1.11-.03-.91-.59,.36-1.01,.66-2.03,.9-3.07h-2.81c-.46,0-.73-.68-.34-.97,1.31-.98,2.68-1.83,4.19-2.46,1.65-.69,6.02-2.25,6.16-1.33,.23,1.49-4.21,6.13-7.2,8.43h0Z"/>
      </g>
      <path class="cls-3" d="M79.74,199.33c-1.41,.29-1.87-1.9-.45-2.19,1.41-.29,1.87,1.9,.45,2.19Z"/>
    </g>
    <g>
      <g>
        <path class="cls-2" d="M77.71,270.77c-.14,.5-.9,.64-1.08,.07-.31-1.03-.69-2.02-1.11-3-.75,.56-1.5,1.11-2.26,1.67-.37,.27-1-.11-.86-.57,.46-1.57,1.05-3.07,1.89-4.48,.91-1.53,3.47-5.41,4.14-4.76,1.08,1.06,.3,7.43-.72,11.06h0Z"/>
        <path class="cls-2" d="M90.39,265.44c.36,.37,.11,1.1-.47,.97-1.05-.24-2.09-.41-3.15-.53,.11,.93,.21,1.86,.32,2.79,.05,.46-.59,.81-.93,.46-1.13-1.18-2.13-2.45-2.94-3.87-.88-1.55-2.95-5.71-2.06-5.96,1.45-.41,6.59,3.45,9.23,6.14h0Z"/>
        <path class="cls-2" d="M92.09,251.79c.5-.13,1.01,.46,.6,.89-.73,.79-1.4,1.61-2.03,2.47,.86,.37,1.72,.74,2.58,1.11,.42,.18,.41,.92-.07,1.03-1.59,.39-3.18,.63-4.82,.61-1.78-.01-6.42-.29-6.19-1.19,.37-1.46,6.28-3.99,9.93-4.93h0Z"/>
        <path class="cls-2" d="M81.12,243.5c.14-.5,.9-.64,1.08-.08,.32,1.03,.69,2.02,1.12,2.99l2.25-1.68c.37-.28,1,.1,.86,.57-.45,1.57-1.05,3.07-1.87,4.48-.9,1.54-3.45,5.42-4.12,4.77-1.08-1.05-.32-7.43,.69-11.06h-.01Z"/>
        <path class="cls-2" d="M68.46,248.87c-.36-.37-.11-1.1,.47-.97,1.05,.24,2.09,.41,3.15,.52-.11-.93-.22-1.86-.33-2.79-.05-.46,.59-.81,.92-.46,1.13,1.18,2.14,2.44,2.95,3.86,.88,1.55,2.97,5.7,2.07,5.95-1.45,.41-6.6-3.43-9.24-6.12h.01Z"/>
        <path class="cls-2" d="M66.79,262.52c-.5,.13-1.01-.46-.61-.89,.73-.79,1.4-1.61,2.03-2.47l-2.58-1.11c-.42-.18-.41-.91,.06-1.03,1.58-.39,3.18-.64,4.82-.63,1.78,0,6.42,.27,6.19,1.17-.37,1.46-6.27,4-9.91,4.96Z"/>
      </g>
      <path class="cls-3" d="M79.28,258.28c-1.41-.28-.98-2.48,.44-2.19,1.41,.28,.98,2.48-.44,2.19Z"/>
    </g>
  </g>
  <path class="cls-3" d="M163.3,32.01c-5.15,0-5.16,8,0,8s5.16-8,0-8Z"/>
  <path class="cls-3" d="M163.3,233.53c-5.15,0-5.16,8,0,8s5.16-8,0-8Z"/>
  <text class="cls-5" transform="translate(102.28 126.95)"><tspan x="0" y="0">Con</tspan><tspan class="cls-1" x="61.28" y="0">t</tspan><tspan x="73.7" y="0">act </tspan><tspan x="33.58" y="38.4">Me!</tspan></text>
</svg>