<?xml version="1.0" encoding="UTF-8"?>
<svg id="Layer_1" data-name="Layer 1" xmlns="http://www.w3.org/2000/svg" xmlns:xlink="http://www.w3.org/1999/xlink" viewBox="0 0 432.77 410.53">
  <defs>
    <style>
      .cls-1 {
        fill: #fac8cb;
      }

      .cls-2 {
        fill: #fadcd0;
      }

      .cls-3 {
        fill: #fceae3;
      }

      .cls-4 {
        filter: url(#drop-shadow-2);
      }

      .cls-5 {
        filter: url(#drop-shadow-1);
      }

      .cls-6 {
        fill: #f7e1e2;
        filter: url(#drop-shadow-3);
      }
    </style>
    <filter id="drop-shadow-1" filterUnits="userSpaceOnUse">
      <feOffset dx="5" dy="3"/>
      <feGaussianBlur result="blur" stdDeviation="4"/>
      <feFlood flood-color="#000" flood-opacity=".2"/>
      <feComposite in2="blur" operator="in"/>
      <feComposite in="SourceGraphic"/>
    </filter>
    <filter id="drop-shadow-2" filterUnits="userSpaceOnUse">
      <feOffset dx="4.76" dy="1.59"/>
      <feGaussianBlur result="blur-2" stdDeviation="3.17"/>
      <feFlood flood-color="#000" flood-opacity=".2"/>
      <feComposite in2="blur-2" operator="in"/>
      <feComposite in="SourceGraphic"/>
    </filter>
    <filter id="drop-shadow-3" filterUnits="userSpaceOnUse">
      <feOffset dx="4.76" dy="1.59"/>
      <feGaussianBlur result="blur-3" stdDeviation="3.17"/>
      <feFlood flood-color="#000" flood-opacity=".2"/>
      <feComposite in2="blur-3" operator="in"/>
      <feComposite in="SourceGraphic"/>
    </filter>
  </defs>
  <g class="cls-5">
    <g>
      <path class="cls-3" d="M219.47,205.66c11.08-50.96,43.95-69.48,63.84-106.9,17.58-33.08,7.3-83.29-23.75-95.85-19.09-7.72-30.19,2.38-43.17,2.38s-24.09-10.1-43.17-2.38c-31.06,12.56-41.34,62.77-23.75,95.85,19.89,37.42,52.76,55.94,63.84,106.9h6.17Z"/>
      <path class="cls-3" d="M209.55,208.35c-45.62-26.16-53.29-62.78-83.15-93.03-26.4-26.74-77.9-32.6-99.59-7.29-13.33,15.55-7.03,29.11-11.05,41.31C11.75,161.53-1.41,168.85,.12,189.17c2.49,33.07,47.64,58.25,84.91,51.95,42.16-7.13,70.14-32.3,122.61-26.97l1.91-5.8Z"/>
      <path class="cls-3" d="M209.07,218.51c-39.27,34.79-76.88,30.68-115.23,49.4-33.9,16.55-55.45,63.14-37.79,91.34,10.85,17.33,25.84,15.61,36.34,23.15,10.5,7.54,13.48,22.16,33.51,27,32.6,7.88,70.78-26.78,76.23-63.75,6.17-41.83-9.41-75.9,11.94-123.57l-4.99-3.58Z"/>
      <path class="cls-3" d="M218.7,222.09c21.35,47.66,5.77,81.74,11.94,123.57,5.45,36.97,43.63,71.63,76.23,63.75,20.03-4.84,23-19.46,33.51-27,10.5-7.54,25.49-5.82,36.34-23.15,17.66-28.2-3.9-74.8-37.79-91.34-38.35-18.72-75.96-14.61-115.23-49.4l-4.99,3.58Z"/>
      <path class="cls-3" d="M225.13,214.15c52.47-5.33,80.45,19.84,122.61,26.97,37.27,6.3,82.42-18.87,84.91-51.95,1.53-20.32-11.62-27.64-15.63-39.84-4.01-12.2,2.28-25.76-11.05-41.31-21.69-25.31-73.19-19.45-99.59,7.29-29.87,30.26-37.54,66.87-83.15,93.03l1.91,5.8Z"/>
    </g>
    <g>
      <path class="cls-1" d="M219.42,208.66c10.92-50.21,43.31-68.46,62.9-105.34,17.32-32.59,7.2-82.07-23.41-94.45-18.81-7.61-29.75,2.35-42.54,2.35s-23.73-9.95-42.54-2.35c-30.6,12.38-40.73,61.86-23.41,94.45,19.6,36.87,51.99,55.12,62.91,105.34h6.08Z"/>
      <path class="cls-1" d="M209.65,211.31c-44.95-25.78-52.51-61.86-81.94-91.67-26.01-26.35-76.76-32.13-98.13-7.19-13.13,15.32-6.93,28.68-10.88,40.71-3.95,12.02-16.91,19.23-15.41,39.25,2.45,32.59,46.94,57.39,83.66,51.18,41.54-7.03,69.12-31.83,120.81-26.57l1.88-5.72Z"/>
      <path class="cls-1" d="M209.18,221.32c-38.7,34.28-75.76,30.23-113.54,48.68-33.4,16.31-54.64,62.22-37.24,90.01,10.69,17.08,25.46,15.38,35.81,22.81,10.35,7.43,13.28,21.84,33.02,26.61,32.12,7.76,69.74-26.38,75.11-62.81,6.08-41.22-9.27-74.79,11.76-121.76l-4.92-3.53Z"/>
      <path class="cls-1" d="M218.67,224.85c21.03,46.96,5.69,80.54,11.76,121.76,5.37,36.43,42.99,70.58,75.11,62.81,19.74-4.77,22.67-19.18,33.02-26.61,10.35-7.43,25.12-5.73,35.81-22.81,17.4-27.79-3.84-73.7-37.24-90.01-37.79-18.45-74.85-14.4-113.54-48.68l-4.92,3.53Z"/>
      <path class="cls-1" d="M225,217.02c51.7-5.25,79.27,19.55,120.81,26.57,36.72,6.21,81.21-18.6,83.66-51.18,1.51-20.02-11.45-27.23-15.41-39.25-3.95-12.02,2.25-25.38-10.88-40.71-21.37-24.94-72.12-19.17-98.13,7.19-29.43,29.81-36.99,65.89-81.94,91.67l1.88,5.72Z"/>
    </g>
  </g>
  <g class="cls-4">
    <path class="cls-2" d="M245.29,116.29c-4.22,0-7.63,3.38-7.63,7.54,0,1.39,.41,2.67,1.07,3.78-12.49,18.13-18.84,40.55-22.06,58.38-.73-5.11-1.63-10.64-2.79-16.52-4.46-22.6-13.45-53.81-31.18-78.52,.63-1.1,1.03-2.36,1.03-3.71,0-4.17-3.42-7.54-7.63-7.54s-7.63,3.38-7.63,7.54,3.42,7.54,7.63,7.54c.6,0,1.18-.09,1.74-.22,33.94,47.4,35.51,121.34,35.52,122.11l3.09-.05,2.99,.04c0-.54,1.08-51.66,24.2-85.49,.54,.12,1.09,.19,1.67,.19,4.22,0,7.63-3.38,7.63-7.54s-3.42-7.54-7.63-7.54Z"/>
    <path class="cls-2" d="M128.78,158.51c-1.3,3.96,.89,8.22,4.9,9.51,1.33,.43,2.69,.44,3.97,.17,13.59,17.34,33.21,30.24,49.37,38.77-5.14-.89-10.75-1.75-16.76-2.48-23.13-2.79-55.95-3.99-85.21,5.04-.86-.94-1.95-1.69-3.26-2.11-4.01-1.29-8.32,.88-9.62,4.84-1.3,3.96,.89,8.22,4.9,9.51,4.01,1.29,8.32-.88,9.62-4.84,.19-.57,.28-1.14,.33-1.71,56.11-17.25,127.75,4.12,128.5,4.35l.91-2.92,.97-2.8c-.52-.17-49.38-16.98-74.8-49.16,.28-.47,.52-.97,.7-1.51,1.3-3.96-.89-8.22-4.9-9.51-4.01-1.29-8.32,.88-9.62,4.84Z"/>
    <path class="cls-2" d="M133.41,281.05c3.41,2.45,8.19,1.7,10.66-1.67,.82-1.12,1.26-2.39,1.39-3.68,20.89-7.41,39.36-21.87,52.57-34.41-2.45,4.55-5.01,9.56-7.56,14.99-9.83,20.87-21.13,51.35-21.48,81.64-1.17,.52-2.23,1.31-3.04,2.41-2.48,3.37-1.72,8.09,1.69,10.54,3.41,2.45,8.18,1.7,10.66-1.67,2.48-3.37,1.72-8.09-1.69-10.54-.49-.35-1.01-.62-1.54-.84,.74-58.06,43.44-118.79,43.89-119.42l-2.53-1.76-2.39-1.77c-.33,.43-31.6,41.17-70.42,55.11-.36-.41-.77-.79-1.23-1.12-3.41-2.45-8.18-1.7-10.66,1.67-2.48,3.37-1.72,8.09,1.69,10.54Z"/>
    <path class="cls-2" d="M252.77,314.57c3.41-2.45,4.17-7.17,1.69-10.54-.82-1.12-1.91-1.92-3.11-2.44-.68-21.92-8.88-43.75-16.88-60.04,3.62,3.71,7.65,7.66,12.09,11.74,17.05,15.69,42.89,35.72,71.93,45.42,.14,1.26,.57,2.5,1.38,3.6,2.48,3.37,7.25,4.12,10.66,1.67,3.41-2.45,4.17-7.17,1.69-10.54-2.48-3.37-7.25-4.12-10.66-1.67-.49,.35-.91,.76-1.28,1.19-55.65-18.63-100.9-77.54-101.37-78.16l-2.47,1.83-2.45,1.7c.31,.44,29.85,42.42,31.27,83.22-.51,.22-1,.48-1.46,.81-3.41,2.45-4.17,7.17-1.69,10.54,2.48,3.37,7.25,4.12,10.66,1.67Z"/>
    <path class="cls-2" d="M321.92,212.75c-1.3-3.96-5.61-6.13-9.62-4.84-1.33,.43-2.44,1.2-3.31,2.17-21.31-6.14-44.85-5.18-63-2.69,4.69-2.26,9.74-4.83,15.03-7.73,20.37-11.18,47.63-29.27,65.94-53.57,1.25,.26,2.58,.24,3.89-.18,4.01-1.29,6.2-5.54,4.9-9.51-1.3-3.96-5.61-6.13-9.62-4.84-4.01,1.29-6.2,5.54-4.9,9.51,.19,.57,.45,1.08,.75,1.57-35.13,46.55-105.81,70.87-106.54,71.12l1,2.89,.88,2.82c.52-.16,50.05-14.95,89.75-3.67,.05,.54,.15,1.09,.33,1.63,1.3,3.96,5.61,6.13,9.62,4.84,4.01-1.29,6.2-5.54,4.9-9.51Z"/>
  </g>
  <ellipse class="cls-6" cx="216.38" cy="216.63" rx="21.33" ry="21.08"/>
</svg>